<?xml version="1.0" encoding="UTF-8"?>
<svg width="500px" height="500px" viewBox="0 0 500 500" version="1.1" xmlns="http://www.w3.org/2000/svg" xmlns:xlink="http://www.w3.org/1999/xlink">
    <title>网上冲浪</title>
    <defs>
        <path d="M41.329795,8.39369021 C39.4138269,7.37781321 37.3144875,6.66633257 35.0972665,6.30535308 L35.0972665,6.30535308 C34.0279499,6.1314123 32.9340091,6.03186788 31.8149203,6.03186788 L31.8149203,6.03186788 C21.9867426,6.03186788 13.7869021,13.0010251 11.8866515,22.2670387 L11.8866515,22.2670387 C5.04428246,24.252164 0.132027335,29.6705239 0.132027335,36.0466059 L0.132027335,36.0466059 C0.132027335,39.2707973 1.40462415,42.2167882 3.72872437,44.5917084 L3.72872437,44.5917084 C5.9595672,46.8723235 9.15965831,48.6274487 13.141959,49.5940774 L13.141959,49.5940774 C15.3796128,50.1373804 17.8619362,50.4333941 20.5580182,50.4333941 L20.5580182,50.4333941 L62.8864009,50.4333941 L62.8864009,50.4244875 C66.2185194,50.4239636 76.36,49.8549886 78.7977904,49.8549886 L78.7977904,49.8549886 C86.56959,49.8549886 92.8702278,43.5543508 92.8702278,35.7825513 L92.8702278,35.7825513 C92.8702278,30.0005923 89.3819818,25.0359453 84.397426,22.8711162 L84.397426,22.8711162 C83.8017312,17.6424146 79.8320046,13.4405923 74.7128018,12.5069704 L74.7128018,12.5069704 C73.012164,8.0704328 69.6999544,4.43339408 65.4934169,2.30943052 L65.4934169,2.30943052 C62.9183599,1.0101139 60.0085194,0.276104784 56.9263098,0.276104784 L56.9263098,0.276104784 C50.4747836,0.276104784 44.7761276,3.48667426 41.329795,8.39369021" id="path-1"></path>
        <path d="M93.4732574,1.63305239 C85.7438952,3.80783599 79.1173804,8.61425968 74.6164009,15.0233485 L74.6164009,15.0233485 C69.4825285,12.3010706 63.6308884,10.7534169 57.4156492,10.7534169 L57.4156492,10.7534169 C45.3896355,10.7534169 34.717426,16.5301367 28.0076082,25.4556036 L28.0076082,25.4556036 C24.8043736,29.7161048 22.5001822,34.6907062 21.39,40.102779 L21.39,40.102779 C9.02029613,43.6921412 0.140933941,53.4862642 0.140933941,65.0129841 L0.140933941,65.0129841 C0.140933941,79.5815718 14.477426,91.0213212 37.0666743,91.0213212 L37.0666743,91.0213212 L113.585945,91.0213212 L113.585945,91.0050797 C119.185057,91.0045558 124.46615,89.7073349 129.132164,87.4183371 L129.132164,87.4183371 C137.569339,83.2778132 143.986811,75.8790433 146.579157,66.9446697 L146.579157,66.9446697 C147.396993,64.1259909 147.843895,61.1590433 147.843895,58.0899317 L147.843895,58.0899317 C147.843895,48.7275171 143.768337,40.2851025 137.237175,34.2914806 L137.237175,34.2914806 C136.971025,15.5011617 121.664761,0.348929385 102.811572,0.348929385 L102.811572,0.348929385 C99.5742825,0.348929385 96.4433485,0.797403189 93.4732574,1.63305239" id="path-3"></path>
        <path d="M60.9122779,13.6857859 C40.1881777,23.5516856 18.0715034,34.2532346 9.42109339,46.0440091 L9.42109339,46.0440091 C2.01498861,56.139385 -4.35899772,71.3204328 5.50113895,76.8158087 L5.50113895,76.8158087 C100.059954,18.9951708 141.511822,33.5019362 144.444191,36.1152392 L144.444191,36.1152392 C154.398109,44.9856948 163.003986,45.7720957 165.424487,25.6007289 L165.424487,25.6007289 C167.448383,8.73528474 146.925991,0.389271071 120.755763,0.387698901 L120.755763,0.387698901 C101.629613,0.386127563 79.4909339,4.84205011 60.9122779,13.6857859" id="path-5"></path>
        <path d="M76.538656,2.2533713 C36.6878815,9.27020501 23.2284282,44.767221 0.0429612756,62.8874487 L0.0429612756,62.8874487 C13.2603645,57.6100228 26.0057175,49.8995216 38.0291116,44.4623007 L38.0291116,44.4623007 C87.7756492,21.9657859 125.709932,26.2687244 137.854351,42.6437813 L137.854351,42.6437813 C139.223872,44.4895444 140.675649,44.1704784 141.420137,43.8430296 L141.420137,43.8430296 C179.398428,27.1625285 149.32082,0.121548975 100.614784,0.117881239 L100.614784,0.117881239 C92.9807745,0.117881239 84.8982916,0.781161731 76.538656,2.2533713" id="path-7"></path>
        <path d="M14.4847608,43.124738 C12.1716629,46.1514123 9.42004556,51.9852392 7.70892938,58.9580638 L7.70892938,58.9580638 C5.18102506,69.2551481 2.27537585,72.8261731 0.845079727,77.6498861 L0.845079727,77.6498861 C-0.892756264,83.5109567 4.09808656,84.7825057 7.92216401,84.78041 L7.92216401,84.78041 C10.7251253,84.7793622 12.1507062,87.8699544 11.4376538,91.9648975 L11.4376538,91.9648975 C10.5349431,97.1516856 14.4842369,100.766196 27.22959,103.030569 L27.22959,103.030569 C32.1161731,103.899226 38.4210023,104.786219 45.7542825,105.106856 L45.7542825,105.106856 C80.7514806,106.634601 138.348929,99.4469704 164.373508,80.0232346 L164.373508,80.0232346 C160.669408,81.1344647 156.681868,81.8019362 152.332825,81.9276765 L152.332825,81.9276765 C106.78549,83.2479499 101.568838,43.4563781 122.839909,20.8650342 L122.839909,20.8650342 C132.774442,10.3138497 148.245216,4.25159453 153.350797,4.68015945 L153.350797,4.68015945 C149.718474,2.8909795 145.368907,1.3538041 141.32426,1.3538041 L141.32426,1.3538041 C138.559021,1.13271071 131.151344,0.43118451 121.034487,0.43118451 L121.034487,0.43118451 C92.6397039,0.43118451 42.8942141,5.95537585 14.4847608,43.124738" id="path-9"></path>
        <path d="M232.368633,2.95908884 C214.699499,6.59874715 202.423052,11.6550797 192.58492,16.1707289 L192.58492,16.1707289 C180.127722,21.8892938 167.816173,29.318451 154.59877,34.595877 L154.59877,34.595877 C149.678132,38.4424829 144.318975,41.5063554 138.177608,43.3489749 L138.177608,43.3489749 C133.718542,46.6669476 75.4096128,76.1944419 0.464191344,65.1974032 L0.464191344,65.1974032 C1.91072893,68.3791572 3.8052164,71.6656948 5.45241458,74.8615945 L5.45241458,74.8615945 C27.8960137,118.429043 118.215285,115.225809 184.226856,88.1607289 L184.226856,88.1607289 C216.579317,74.8961731 249.009841,65.5232802 284.074624,63.5507289 L284.074624,63.5507289 C293.891276,62.9985194 303.726264,62.8418679 313.557062,62.8350569 L313.557062,62.8350569 C318.473508,62.8303417 323.389431,62.8659681 328.305353,62.9057859 L328.305353,62.9057859 C332.423872,62.9403645 337.925535,62.9979954 341.380774,63.0320501 L341.380774,63.0320501 C332.232118,61.2800683 318.738087,60.1232574 300.408292,57.3197722 L300.408292,57.3197722 C257.722073,50.791754 254.968884,11.0001822 287.194556,9.19056948 L287.194556,9.19056948 C280.317608,2.95070615 268.417859,0.505056948 255.714419,0.505056948 L255.714419,0.505056948 C247.910137,0.505056948 239.804601,1.42715262 232.368633,2.95908884" id="path-11"></path>
        <path d="M7.19968109,0.849271071 C0.344214123,2.09514806 -3.2608656,14.4129841 4.08341686,13.7517995 L4.08341686,13.7517995 C11.4287472,13.091139 13.4756948,7.88025057 15.0254442,6.61708428 L15.0254442,6.61708428 C19.422164,3.03558087 16.2026879,0.5123918 10.791139,0.5123918 L10.791139,0.5123918 C9.6715262,0.5123918 8.45865604,0.620318907 7.19968109,0.849271071" id="path-13"></path>
        <path d="M6.2943508,0.664328018 C1.81642369,2.31833713 -2.72646925,8.52624146 3.57469248,7.99132118 L3.57469248,7.99132118 C7.77599089,7.63505695 9.93715262,5.39006834 10.2535991,2.53890661 L10.2535991,2.53890661 C10.4479727,0.789544419 9.30059226,0.338451025 8.14744875,0.338451025 L8.14744875,0.338451025 C7.42025057,0.338451025 6.69148064,0.517630979 6.2943508,0.664328018" id="path-15"></path>
        <path d="M0.166082005,4.48578588 C0.362551253,7.1677221 3.47095672,6.18747153 5.39164009,4.48578588 L5.39164009,4.48578588 C7.3133713,2.78357631 7.29189066,0.125216401 4.60943052,0.0702050114 L4.60943052,0.0702050114 C4.55861048,0.0691571754 4.50726651,0.0686332574 4.45697039,0.0686332574 L4.45697039,0.0686332574 C1.5314123,0.0686332574 -0.0267198178,1.84838269 0.166082005,4.48578588" id="path-17"></path>
        <path d="M1.79075171,6.05806378 C5.71070615,7.423918 9.19528474,2.83072893 9.51277904,1.4847836 L9.51277904,1.4847836 C9.82922551,0.137790433 6.79416856,0.25881549 5.83906606,0.21952164 L5.83906606,0.21952164 C5.79034169,0.217425968 5.74109339,0.216378132 5.6918451,0.216378132 L5.6918451,0.216378132 C2.35082005,0.216378132 -2.03332574,4.7252164 1.79075171,6.05806378" id="path-19"></path>
        <path d="M5.19883827,0.220569476 C3.25248292,0.526537585 -0.00419134396,0.783781321 -4.04171289e-06,3.16970387 L-4.04171289e-06,3.16970387 L-4.04171289e-06,3.17756264 C0.00157175399,3.51863326 0.0702050114,3.90371298 0.218473804,4.33856492 L0.218473804,4.33856492 C1.40671982,7.82104784 9.00091116,3.39027335 8.76305239,1.68701595 L8.76305239,1.68701595 C8.59015945,0.44952164 7.65863326,0.0990205011 6.53116173,0.0990205011 L6.53116173,0.0990205011 C6.10469248,0.0990205011 5.6509795,0.149316629 5.19883827,0.220569476" id="path-21"></path>
        <path d="M7.02626424,1.27416856 C-0.510820046,2.83649203 -0.650182232,7.6743508 2.28952164,8.22498861 L2.28952164,8.22498861 C7.04198178,9.11407745 22.7951481,3.41908884 16.457836,1.00382688 L16.457836,1.00382688 C15.2936902,0.560068337 14.0378588,0.402892938 12.8244647,0.402892938 L12.8244647,0.402892938 C10.3190888,0.402892938 7.99446469,1.07298405 7.02626424,1.27416856" id="path-23"></path>
        <path d="M8.28366743,0.500341686 C8.24070615,0.50191344 8.19722096,0.508200456 8.15268793,0.512915718 L8.15268793,0.512915718 C4.92482916,0.885421412 -2.18997722,5.97842825 1.12747153,6.68309795 L1.12747153,6.68309795 C4.48997722,7.39667426 16.7758542,3.41542141 9.52168565,0.500341686 L9.52168565,0.500341686 C9.52168565,0.500341686 9.10883827,0.495102506 8.74209567,0.495102506 L8.74209567,0.495102506 C8.55872437,0.495102506 8.38687927,0.496150342 8.28366743,0.500341686" id="path-25"></path>
        <path d="M5.76728929,0.104259681 C5.76728929,0.104259681 2.16116173,0.602505695 0.735580866,2.13548975 L0.735580866,2.13548975 C-0.69,3.66794989 4.63457859,4.23954442 6.7543508,3.12255125 L6.7543508,3.12255125 C9.8433713,1.49473804 7.40400911,0.0785876993 6.05596811,0.0785876993 L6.05596811,0.0785876993 C5.95223235,0.0785876993 5.85530752,0.0869703872 5.76728929,0.104259681" id="path-27"></path>
        <path d="M2.36496583,0.326400911 C0.939384966,0.682665148 -1.11332574,2.26280182 1.57594533,2.2648998 L1.57594533,2.2648998 C4.26574032,2.26699317 4.41296128,0.841412301 4.22068337,0.485148064 L4.22068337,0.485148064 C4.12952164,0.315922551 3.70829157,0.271389522 3.29020501,0.271389522 L3.29020501,0.271389522 C2.82548975,0.271389522 2.36496583,0.326400911 2.36496583,0.326400911" id="path-29"></path>
        <path d="M26.9503417,0.385079727 L2.3204328,9.44781321 C1.29826879,9.82398633 0.471002278,11.0698633 0.482409474,12.2161959 L0.482409474,12.2161959 L0.647562642,28.8925057 C0.655421412,29.6872893 1.06617312,30.2290205 1.65243736,30.3699544 L1.65243736,30.3699544 L1.63724374,30.3772893 L3.10473804,30.7476993 L4.49574032,30.2028246 L3.54063781,29.944533 L23.4269932,22.7941002 L25.1218679,24.6498178 L26.3913212,24.987221 L27.0498861,23.3106834 L25.8689749,22.8763554 C26.1246469,22.271754 26.3494077,21.7441686 26.3494077,21.7441686 L26.3494077,21.7441686 L26.9639636,21.5230752 C27.9787927,21.1579043 28.8092027,19.9067882 28.8092027,18.7431663 L28.8092027,18.7431663 L28.8092027,1.81747153 C28.8092027,1.47273349 28.7290433,1.18091116 28.5996355,0.940432802 L28.5996355,0.940432802 L29.2712984,0.709908884 L29.2712984,0.709384966 L28.168451,0.410751708 L27.7587472,0.300205011 L27.7456492,0.304920273 C27.6660137,0.291298405 27.5837585,0.283439636 27.4994077,0.283439636 L27.4994077,0.283439636 C27.3259909,0.283439636 27.1420957,0.314874715 26.9503417,0.385079727" id="path-31"></path>
        <path d="M26.648041,0.199088838 L2.01813212,9.26129841 C0.995444191,9.63694761 0.168701595,10.8833485 0.179595319,12.0296811 L0.179595319,12.0296811 L0.344738041,28.705467 C0.356264237,29.8523235 1.19610478,30.4915034 2.21145786,30.1273804 L2.21145786,30.1273804 L23.1246925,22.6075854 L24.8195672,24.463303 C24.8279499,24.4261048 26.0465831,21.5571298 26.0465831,21.5571298 L26.0465831,21.5571298 L26.6616629,21.3360364 C27.676492,20.9713895 28.5069021,19.7202733 28.5069021,18.5566515 L28.5069021,18.5566515 L28.5069021,1.6304328 C28.5069021,0.692095672 27.9630752,0.0916856492 27.2159681,0.0916856492 L27.2159681,0.0916856492 C27.0367882,0.0916856492 26.846082,0.126264237 26.648041,0.199088838" id="path-33"></path>
        <path d="M3.05758542,0.70833713 L2.71546697,1.62728929 C2.50485194,2.19574032 1.94164009,2.86740319 1.4643508,3.12045558 L1.4643508,3.12045558 L0.692095672,3.5285877 C0.215330296,3.78111617 0.109498861,4.19658314 0.45738041,4.45225513 L0.45738041,4.45225513 L1.01954442,4.86562642 C1.36690205,5.12129841 1.58747153,5.79610478 1.50888383,6.36455581 L1.50888383,6.36455581 L1.38209567,7.28298405 C1.30350797,7.85143508 1.58747153,7.98189066 2.01236902,7.57271071 L2.01236902,7.57271071 L2.70027335,6.9115262 C3.12517084,6.50234624 3.82355353,6.24876993 4.25159453,6.34883827 L4.25159453,6.34883827 L4.94316629,6.51072893 C5.37068337,6.61079727 5.65202733,6.27548975 5.56820046,5.76519362 L5.56820046,5.76519362 L5.43302961,4.94002278 C5.34920273,4.42972665 5.56243736,3.59722096 5.90612756,3.0890205 L5.90612756,3.0890205 L6.46200456,2.26751708 C6.80621868,1.75879271 6.69671982,1.42034169 6.21838269,1.51569476 L6.21838269,1.51569476 L5.44612756,1.66972665 C4.96831435,1.76507973 4.39986333,1.50469248 4.18400911,1.0918451 L4.18400911,1.0918451 L3.83455581,0.424897494 C3.74915718,0.260911162 3.6422779,0.182323462 3.53173121,0.182323462 L3.53173121,0.182323462 C3.36302961,0.182323462 3.18489749,0.365170843 3.05758542,0.70833713" id="path-35"></path>
        <path d="M36.6810706,0.246765376 L2.85430524,11.768246 C1.44968109,12.2465831 0.313302961,13.8853986 0.328345982,15.4105239 L0.328345982,15.4105239 L0.548018223,37.5926879 C0.556400911,38.3995216 0.882801822,39.0229841 1.39571754,39.361959 L1.39571754,39.361959 C1.56703872,39.4756492 1.75826879,39.5573804 1.96626424,39.6029613 L1.96626424,39.6029613 L4.2390205,40.4768565 L5.44036446,39.9309339 L3.85236902,39.2760364 L31.8400683,29.9770159 L34.167836,32.481344 C34.1688838,32.4792483 34.1735991,32.4666743 34.1788383,32.4551481 L34.1788383,32.4551481 L34.1819818,32.493918 L35.8197494,33.2761276 L36.2126879,32.2775399 L34.6435535,31.3900228 C35.1423235,30.2552164 35.8538041,28.6431207 35.8538041,28.6431207 L35.8538041,28.6431207 L36.6988838,28.3623007 C38.0930296,27.8986333 39.2335991,26.2535308 39.2335991,24.705877 L39.2335991,24.705877 L39.2335991,2.19102506 C39.2335991,1.91701595 39.195877,1.66448747 39.1288155,1.43605923 L39.1288155,1.43605923 L40.051959,1.19400911 L38.3382232,0.362551253 C38.0746925,0.202756264 37.7650569,0.116309795 37.426082,0.116309795 L37.426082,0.116309795 C37.1903189,0.116309795 36.9398861,0.158223235 36.6810706,0.246765376" id="path-37"></path>
        <path d="M36.7612301,0.517107062 L2.93394077,12.0385877 C1.52984055,12.5169248 0.393462415,14.1562642 0.408505435,15.6808656 L0.408505435,15.6808656 L0.628177677,37.8630296 C0.643371298,39.3881549 1.79651481,40.2568109 3.19066059,39.7936674 L3.19066059,39.7936674 L31.9202278,30.2473576 L34.2479954,32.7516856 C34.2605695,32.7029613 35.9344875,28.9139863 35.9344875,28.9139863 L35.9344875,28.9139863 L36.7795672,28.6331663 C38.1731891,28.1694989 39.3142825,26.5243964 39.3142825,24.9767426 L39.3142825,24.9767426 L39.3142825,2.46189066 C39.3142825,1.20082005 38.5519818,0.386651481 37.5099089,0.386651481 L37.5099089,0.386651481 C37.2730979,0.386651481 37.0216173,0.42856492 36.7612301,0.517107062" id="path-39"></path>
        <path d="M6.39284738,0.461047836 C5.08567198,0.902710706 4.58585421,1.85938497 4.42186788,2.28794989 L4.42186788,2.28794989 C4.25473804,1.97936219 3.73763098,1.35799544 2.41683371,1.80384966 L2.41683371,1.80384966 C1.43920273,2.133918 0.165558087,3.57940774 0.593599089,5.63683371 L0.593599089,5.63683371 C1.02164009,7.69530752 4.42658314,8.56605923 4.42658314,8.56605923 L4.42658314,8.56605923 L4.45801822,8.55505695 C4.45801822,8.55505695 7.84252847,5.40316629 8.24856492,3.06020501 L8.24856492,3.06020501 C8.58649203,1.10808656 7.7529385,0.376173121 6.90052392,0.376173121 L6.90052392,0.376173121 C6.72920273,0.376173121 6.55683371,0.405512528 6.39284738,0.461047836" id="path-41"></path>
        <path d="M26.5993166,0.233143508 L2.37020501,9.40537585 C1.36428246,9.78574032 0.532300683,11.0709112 0.521822323,12.2607289 L0.521822323,12.2607289 L0.364538054,29.5625968 C0.357835991,30.3002733 0.671138952,30.8283827 1.15104784,31.0290433 L1.15104784,31.0290433 L1.14947608,31.030615 L1.15733485,31.0327107 C1.16624146,31.0363781 1.17671982,31.037426 1.18615034,31.0416173 L1.18615034,31.0416173 L2.89307517,31.5597722 L3.56002278,30.6848292 L3.27082005,30.5769021 L23.0571071,22.808246 L24.808041,25.734328 L24.8059453,25.7453303 L24.8174715,25.7489977 L24.8258542,25.7647153 C24.8258542,25.7647153 24.8284738,25.7552847 24.8284738,25.7531891 L24.8284738,25.7531891 L26.1084055,26.2042825 L26.5207289,24.3192255 L25.3890661,23.7382005 C25.6787927,22.7045103 25.9727107,21.6629613 25.9727107,21.6629613 L25.9727107,21.6629613 L26.5867426,21.4224829 C27.5994761,21.0248292 28.4277904,19.7469932 28.4277904,18.5833713 L28.4277904,18.5833713 L28.4277904,1.6566287 C28.4277904,1.47797267 28.4031663,1.31712984 28.366492,1.1646697 L28.366492,1.1646697 L28.935467,0.6638041 L27.6581549,0.231571754 C27.5051708,0.162938497 27.3359453,0.125740319 27.1541458,0.125740319 L27.1541458,0.125740319 C26.9791572,0.125740319 26.7931663,0.159794989 26.5993166,0.233143508" id="path-43"></path>
        <path d="M26.3101139,0.149840547 L2.08047836,9.32154897 C1.07507973,9.70243736 0.24309795,10.9870843 0.23261959,12.1763781 L0.23261959,12.1763781 L0.0748108967,29.4787699 C0.0639179954,30.6685877 0.884373576,31.3166743 1.89710706,30.9184966 L1.89710706,30.9184966 L22.7673804,22.7238952 L24.5366515,25.6803645 C24.5403189,25.6295444 25.683508,21.5791344 25.683508,21.5791344 L25.683508,21.5791344 L26.2975399,21.3381321 C27.3097494,20.9410023 28.1385877,19.6631663 28.1385877,18.4995444 L28.1385877,18.4995444 L28.1385877,1.57280182 C28.1385877,0.637084282 27.6068109,0.0398177677 26.8754214,0.0398177677 L26.8754214,0.0398177677 C26.6972893,0.0398177677 26.5071071,0.0749202733 26.3101139,0.149840547" id="path-45"></path>
        <path d="M0.25357631,0.88594533 L0.234187589,4.82738041 C0.233143508,5.06471526 0.451617312,5.1270615 0.628701595,4.94107062 L0.628701595,4.94107062 L3.56316629,1.84471526 C3.73867882,1.65924829 3.74025057,1.36323462 3.56473804,1.3129385 L3.56473804,1.3129385 L0.650182232,0.467334852 C0.633940774,0.46261959 0.617175399,0.46 0.599886105,0.46 L0.599886105,0.46 C0.435899772,0.46 0.255148064,0.67166287 0.25357631,0.88594533" id="path-47"></path>
        <path d="M32.9298178,0.636036446 L2.56615034,12.956492 C1.30560364,13.467836 0.27453303,15.1710934 0.27453303,16.7412756 L0.27453303,16.7412756 L0.27453303,39.5825285 C0.27453303,40.691139 0.789544419,41.4398178 1.53560364,41.6006606 L1.53560364,41.6006606 L3.81464692,42.4934169 L5.60225513,41.7620273 L3.84136674,40.9483827 L28.5378132,30.6387244 L30.6387244,33.0513667 C30.6492027,33.0021185 32.1664692,29.1246014 32.1664692,29.1246014 L32.1664692,29.1246014 L32.9303417,28.8055353 C34.1908884,28.2789977 35.221959,26.5825513 35.221959,25.0343736 L35.221959,25.0343736 L35.221959,2.52004556 C35.221959,2.29947608 35.1983827,2.09462415 35.1590888,1.903918 L35.1590888,1.903918 L36.2325968,1.50416856 L34.2427563,0.616651481 C34.2244191,0.607744875 34.206082,0.598838269 34.1877449,0.591503417 L34.1877449,0.591503417 L34.1631207,0.580501139 L34.1599772,0.582072893 C33.9986105,0.520250569 33.8236219,0.487767654 33.6386788,0.487767654 L33.6386788,0.487767654 C33.4154897,0.487767654 33.1771071,0.534920273 32.9298178,0.636036446" id="path-49"></path>
        <path d="M32.7569248,0.444806378 L2.39220957,12.7663098 C1.13166287,13.2771298 0.100592255,14.9803872 0.100592255,16.5505695 L0.100592255,16.5505695 L0.100592255,39.3918223 C0.100592255,40.9620046 1.13166287,41.8165148 2.39220957,41.2899772 L2.39220957,41.2899772 L28.3643964,30.4485421 L30.4647836,32.8611845 C30.4763098,32.8114123 31.9930524,28.9338952 31.9930524,28.9338952 L31.9930524,28.9338952 L32.7569248,28.6148292 C34.0169476,28.0888155 35.0485421,26.392369 35.0485421,24.8436674 L35.0485421,24.8436674 L35.0485421,2.32986333 C35.0485421,1.08712984 34.3842141,0.296013667 33.4705011,0.296013667 L33.4705011,0.296013667 C33.2457403,0.296013667 33.0057859,0.343690205 32.7569248,0.444806378" id="path-51"></path>
        <path d="M5.52419134,0.710432802 C3.2053303,1.66605923 1.2343508,3.72977221 0.477813212,6.67681093 L0.477813212,6.67681093 C1.75617312,7.78018223 3.54378132,8.05366743 5.52419134,7.23268793 L5.52419134,7.23268793 C7.50460137,6.41066059 9.2932574,4.65605923 10.5710934,2.50013667 L10.5710934,2.50013667 C10.0607973,0.94095672 8.99724374,0.235763098 7.64710706,0.23523918 L7.64710706,0.23523918 C6.99640091,0.23523918 6.27915718,0.399225513 5.52419134,0.710432802" id="path-53"></path>
        <path d="M3.42851936,0.419658314 C1.7032574,1.12537585 0.304396355,3.39341686 0.304396355,5.48437358 L0.304396355,5.48437358 C0.304396355,7.57585421 1.7032574,8.69494305 3.42851936,7.98451025 L3.42851936,7.98451025 C5.15430524,7.27355353 6.55369021,5.00603645 6.55369021,2.91979499 L6.55369021,2.91979499 C6.55369021,1.25687927 5.66460137,0.208519362 4.43025057,0.208519362 L4.43025057,0.208519362 C4.11589977,0.208519362 3.7790205,0.276628702 3.42851936,0.419658314" id="path-55"></path>
        <polygon id="path-57" points="0.272961276 1.60738041 2.17373576 2.47394077 2.56300683 1.32027335 0.0874943052 0.288678815"></polygon>
        <path d="M32.564123,-0.00157175399 C32.4949658,-0.00157175399 32.4258087,0.0125740319 32.3618907,0.0403416856 L32.3618907,0.0403416856 L0.783257403,13.6831663 C0.273485194,13.9026879 0.430136674,14.6634169 0.986013667,14.6634169 L0.986013667,14.6634169 L116.586948,14.6634169 C116.673394,14.6634169 116.758793,14.6419362 116.834761,14.6000228 L116.834761,14.6000228 L141.480911,0.95667426 C141.942483,0.701002278 141.760683,-0.00157175399 141.232574,-0.00157175399 L141.232574,-0.00157175399 L32.564123,-0.00157175399 Z" id="path-59"></path>
        <path d="M138.941481,16.2629385 L0.308587699,16.2629385 L0.308587699,20.4197039 L138.6418,20.4197039 C138.838269,20.4197039 139.031071,20.3688838 139.201344,20.2724829 L139.201344,20.2724829 L166.731139,4.52246014 L166.731139,0.365694761 L138.941481,16.2629385 Z" id="path-61"></path>
        <polygon id="path-63" points="0.4076082 16.0800911 0.4076082 20.2363326 27.8928702 4.52246014 27.8928702 0.365694761"></polygon>
        <polygon id="path-65" points="2.96851936 0.517630979 0.364646925 1.59323462 22.6814579 1.71321185 23.1231207 0.517630979"></polygon>
        <path d="M3.71353075,0.217949886 C3.71353075,0.217949886 6.0701139,1.15314351 11.0578132,2.84015945 C16.0455125,4.5271754 25.0333257,5.97580866 25.0333257,5.97580866 C25.0333257,5.97580866 23.0665376,6.29173121 16.5751936,9.68881549 C15.352369,10.3285194 15.0919818,10.2483599 11.7184738,9.36817768 C8.343918,8.48799544 0.128883827,3.10578588 0.128883827,3.10578588 L0.128883827,3.10578588 L3.2461959,0.593599089 L3.71353075,0.217949886 Z" id="path-67"></path>
        <path d="M0.346833713,1.43291572 C0.236810934,2.25808656 0.181275626,2.97323462 0.181275626,2.97323462 L0.181275626,2.97323462 C0.181275626,2.97323462 0.456332574,2.56981777 2.60177677,2.12972665 L2.60177677,2.12972665 C4.74722096,1.68963554 4.43548975,1.34123007 4.43548975,1.34123007 L4.43548975,1.34123007 L4.03259681,0.479384966 C4.03259681,0.479384966 0.456332574,0.607744875 0.346833713,1.43291572" id="path-69"></path>
        <path d="M0.170797267,0.133599089 L2.38487472,4.42448747 L5.27323462,2.87002278 C5.27323462,2.87002278 5.65779043,1.60528474 3.58150342,0.518678815 L3.58150342,0.518678815 C2.82444191,0.122596811 1.99560364,0.0209567198 1.34437358,0.0209567198 L1.34437358,0.0209567198 C0.659088838,0.0209567198 0.170797267,0.133599089 0.170797267,0.133599089" id="path-71"></path>
        <path d="M5.64050114,0.633940774 C8.28104784,-0.136218679 8.88617312,0.193849658 13.1775854,0.193849658 C17.4679499,0.193849658 17.6879954,0.413895216 19.6684055,1.40410023 C21.6493394,2.39430524 23.5092483,4.0352164 22.1444419,3.68733485 C19.338861,2.97218679 20.3840774,3.71457859 18.4031435,2.72437358 C16.4227335,1.73416856 17.4679499,2.47708428 15.8181321,2.91665148 C14.1672665,3.35726651 14.8829385,3.21947608 14.0027563,1.67915718 C13.1220501,0.138838269 12.2968793,2.39430524 10.8671071,2.6143508 C9.43628702,2.83439636 9.49182232,2.28428246 9.05173121,1.62414579 C8.61111617,0.964009112 8.19879271,1.15681093 7.2085877,1.70692483 C6.21838269,2.25703872 0.689476082,1.67915718 0.689476082,1.67915718 L0.689476082,1.67915718 L0.176036446,0.285535308 C0.176036446,0.285535308 4.46692483,0.976583144 5.64050114,0.633940774 Z" id="path-73"></path>
        <path d="M28.2522779,22.6191116 C50.0357403,2.81605923 68.4095444,-1.06879271 81.6080866,0.472050114 C95.6930979,2.1166287 93.1148975,15.8862415 114.009795,22.85959 C123.592255,26.0575854 138.249385,27.4470159 161.496674,26.2477677 C172.779772,25.6656948 180.534806,26.5783599 185.807517,28.5304784 C192.880934,31.1495444 195.483759,35.6389977 196.134989,40.8975626 C197.010979,47.967836 194.491982,55.9607289 194.439066,63.1336902 C194.437494,63.3799317 193.363462,63.5769248 191.782278,63.7325285 C187.586219,64.144328 179.815467,64.2616856 179.019636,64.2218679 C172.37164,63.8876082 165.777608,62.1005239 159.926492,58.9140547 C152.587449,54.9176082 146.350205,49.8209339 137.428929,50.7252164 C134.151822,51.0579043 130.623759,51.9412301 127.4682,52.7946925 C115.874943,55.9292938 104.851185,61.6263781 92.574738,62.873303 C83.528246,63.792779 71.2900456,57.225467 62.4798405,59.333713 C28.1527335,67.5487472 35.3445558,104.876856 35.2313895,105.469408 C33.5962415,114.004032 32.0187244,111.928793 25.4849431,108.306948 C21.3182232,106.002756 17.320205,103.360638 13.7376538,100.223941 C8.12230068,95.3085421 3.56526196,89.1320729 1.51726651,81.8857631 C-0.719863326,73.9730296 -0.157175399,66.4527107 2.40635535,58.7940774 C6.59979499,46.2645786 16.0366059,34.4240319 25.1155809,25.5724374" id="path-75"></path>
        <path d="M140.235558,0.0361503417 L31.7059453,5.53571754 C31.6362642,5.53886105 31.5681549,5.55457859 31.5052847,5.58077449 L31.5052847,5.58077449 L0.549589977,18.6698178 C0.0497722096,18.8814806 0.238906606,19.5138497 0.793735763,19.4855581 L0.793735763,19.4855581 L116.246925,13.6360137 C116.332847,13.6318223 116.417722,13.6087699 116.491595,13.5694761 L116.491595,13.5694761 L140.524237,0.831457859 C140.964328,0.597790433 140.77205,0.0356264237 140.270137,0.0356264237 L140.270137,0.0356264237 C140.25861,0.0356264237 140.247084,0.0356264237 140.235558,0.0361503417" id="path-77"></path>
        <path d="M138.632893,15.0154897 L0.177084282,22.0307517 L0.354168565,25.5315718 L138.511344,18.5315034 C138.707289,18.521549 138.897472,18.4691572 139.064077,18.3790433 L139.064077,18.3790433 L165.886059,3.71981777 L165.708451,0.218997722 L138.632893,15.0154897 Z" id="path-79"></path>
        <polygon id="path-81" points="0.0911617312 14.8457403 0.268769932 18.3465604 27.0477904 3.71981777 26.8701822 0.218997722"></polygon>
        <path d="M0.0220045558,1.02373576 C0.0220045558,1.02373576 5.99047836,1.40829157 7.03621868,1.38104784 L7.03621868,1.38104784 C8.08143508,1.3538041 10.254123,0.473621868 10.254123,0.473621868 L10.254123,0.473621868 L0.0220045558,1.02373576 Z" id="path-83"></path>
        <path d="M0.270865604,2.66831435 C0.357835991,4.41820046 0.827790433,7.09332574 0.827790433,7.09332574 L0.827790433,7.09332574 C0.827790433,7.09332574 1.34332574,6.59507973 0.910045558,4.66025057 L0.910045558,4.66025057 C0.476241458,2.72594533 1.84628702,0.43118451 1.84628702,0.43118451 L1.84628702,0.43118451 L0.0728246014,0.0476765376 C0.0728246014,0.0476765376 0.183895216,0.918952164 0.270865604,2.66831435" id="path-85"></path>
        <path d="M0.382984055,0.233143508 C0.382984055,0.233143508 1.28412301,0.609316629 2.3932574,2.57767654 L2.3932574,2.57767654 C3.50343964,4.54603645 3.97339408,6.54635535 3.97339408,6.54635535 L3.97339408,6.54635535 C3.97339408,6.54635535 3.9304328,4.26993166 3.45471526,2.89569476 L3.45471526,2.89569476 C2.59287016,0.405512528 0.94881549,0.228428246 0.49929385,0.228428246 L0.49929385,0.228428246 C0.424373576,0.228428246 0.382984055,0.233143508 0.382984055,0.233143508" id="path-87"></path>
    </defs>
    <g id="网上冲浪" stroke="none" stroke-width="1" fill="none" fill-rule="evenodd">
        <g id="编组" transform="translate(20.000000, 76.000000)">
            <g transform="translate(31.435080, 5.595399)">
                <g fill="#C5ECE7" id="Fill-1">
                    <path d="M348.735692,118.667478 C341.03567,115.317023 334.155055,110.888868 327.854941,105.714654 C323.828631,119.589574 310.587651,129.774016 294.861729,129.775064 L294.861729,129.790781 L218.342458,129.790781 C195.75321,129.790781 181.416718,118.351032 181.416718,103.782968 C181.416718,92.2562483 190.29608,82.4621253 202.665784,78.8727631 C206.10059,62.1220569 220.92485,49.522877 238.691433,49.522877 C244.906672,49.522877 250.758312,51.0715786 255.892185,53.7933326 C260.393164,47.3842437 267.019679,42.57782 274.749041,40.4030364 C253.962595,13.9729453 229.485146,-6.3435467 185.084144,1.98098633 C124.052936,13.4233554 101.915829,44.7573189 54.5567859,92.4804852 C7.1977426,140.203651 -8.21487699,193.676294 4.53047608,253.582125 C17.2753052,313.487957 50.5938702,324.882125 102.536148,326.331282 C181.416718,328.531738 234.728517,277.765656 310.488631,281.40479 C386.248745,285.043401 417.317082,287.753105 427.113825,230.752399 C434.615282,187.106362 407.888654,144.408093 348.735692,118.667478"></path>
                </g>
                <path d="M399.827913,183.737412 C379.872401,161.141353 370.776661,156.715818 341.731695,149.454314 C327.14739,145.808369 318.073654,136.67805 310.407686,126.188164 C305.742196,128.477162 300.461103,129.774383 294.861467,129.774907 L294.861467,129.791148 L218.342196,129.791148 C195.752948,129.791148 181.416456,118.351399 181.416456,103.783335 C181.416456,92.2560911 190.295818,82.4619681 202.666046,78.8731298 C203.775704,73.460533 206.080419,68.4864556 209.28313,64.2259544 C177.955977,60.7990068 145.951399,63.6517403 125.875385,70.2415809 C114.758369,73.8901458 100.060374,79.8491891 84.877754,88.755795 C89.0848155,90.8797585 92.3970251,94.5173212 94.0981868,98.9538588 C99.2168656,99.8874806 103.186592,104.089303 103.781763,109.317481 C108.767367,111.48231 112.255089,116.447481 112.255089,122.228916 C112.255089,130.001239 105.954451,136.301353 98.1826515,136.301353 C95.744861,136.301353 85.6033804,136.870328 82.271262,136.870852 L82.271262,136.879759 L39.9434032,136.879759 C37.2467973,136.879759 34.7644738,136.583745 32.52682,136.040442 C30.35518,139.213289 28.2956583,142.513449 26.3707836,145.947207 C18.6036993,159.80379 13.0816036,172.812674 9.52105695,185.219576 C6.06738952,197.254497 4.46315262,208.722014 4.4531495,219.845317 C4.43224146,242.765681 11.1792574,264.222743 22.4827882,286.164952 C44.9263872,329.731877 134.456638,326.364132 200.467686,299.299576 C266.479257,272.235021 292.223016,273.555818 362.194884,274.215431 C432.166752,274.875567 424.473016,211.644428 399.827913,183.737412" id="Fill-3" fill="#E3F6F3"></path>
            </g>
            <g transform="translate(50.820046, 92.041868)">
                <mask id="mask-2" fill="white">
                    <use xlink:href="#path-1"></use>
                </mask>
                <g id="Clip-6"></g>
                <path d="M41.329795,8.39369021 C39.4138269,7.37781321 37.3144875,6.66633257 35.0972665,6.30535308 L35.0972665,6.30535308 C34.0279499,6.1314123 32.9340091,6.03186788 31.8149203,6.03186788 L31.8149203,6.03186788 C21.9867426,6.03186788 13.7869021,13.0010251 11.8866515,22.2670387 L11.8866515,22.2670387 C5.04428246,24.252164 0.132027335,29.6705239 0.132027335,36.0466059 L0.132027335,36.0466059 C0.132027335,39.2707973 1.40462415,42.2167882 3.72872437,44.5917084 L3.72872437,44.5917084 C5.9595672,46.8723235 9.15965831,48.6274487 13.141959,49.5940774 L13.141959,49.5940774 C15.3796128,50.1373804 17.8619362,50.4333941 20.5580182,50.4333941 L20.5580182,50.4333941 L62.8864009,50.4333941 L62.8864009,50.4244875 C66.2185194,50.4239636 76.36,49.8549886 78.7977904,49.8549886 L78.7977904,49.8549886 C86.56959,49.8549886 92.8702278,43.5543508 92.8702278,35.7825513 L92.8702278,35.7825513 C92.8702278,30.0005923 89.3819818,25.0359453 84.397426,22.8711162 L84.397426,22.8711162 C83.8017312,17.6424146 79.8320046,13.4405923 74.7128018,12.5069704 L74.7128018,12.5069704 C73.012164,8.0704328 69.6999544,4.43339408 65.4934169,2.30943052 L65.4934169,2.30943052 C62.9183599,1.0101139 60.0085194,0.276104784 56.9263098,0.276104784 L56.9263098,0.276104784 C50.4747836,0.276104784 44.7761276,3.48667426 41.329795,8.39369021" id="Fill-5" fill="#C5ECE7" mask="url(#mask-2)"></path>
            </g>
            <g transform="translate(212.710706, 44.365330)">
                <mask id="mask-4" fill="white">
                    <use xlink:href="#path-3"></use>
                </mask>
                <g id="Clip-8"></g>
                <path d="M93.4732574,1.63305239 C85.7438952,3.80783599 79.1173804,8.61425968 74.6164009,15.0233485 L74.6164009,15.0233485 C69.4825285,12.3010706 63.6308884,10.7534169 57.4156492,10.7534169 L57.4156492,10.7534169 C45.3896355,10.7534169 34.717426,16.5301367 28.0076082,25.4556036 L28.0076082,25.4556036 C24.8043736,29.7161048 22.5001822,34.6907062 21.39,40.102779 L21.39,40.102779 C9.02029613,43.6921412 0.140933941,53.4862642 0.140933941,65.0129841 L0.140933941,65.0129841 C0.140933941,79.5815718 14.477426,91.0213212 37.0666743,91.0213212 L37.0666743,91.0213212 L113.585945,91.0213212 L113.585945,91.0050797 C119.185057,91.0045558 124.46615,89.7073349 129.132164,87.4183371 L129.132164,87.4183371 C137.569339,83.2778132 143.986811,75.8790433 146.579157,66.9446697 L146.579157,66.9446697 C147.396993,64.1259909 147.843895,61.1590433 147.843895,58.0899317 L147.843895,58.0899317 C147.843895,48.7275171 143.768337,40.2851025 137.237175,34.2914806 L137.237175,34.2914806 C136.971025,15.5011617 121.664761,0.348929385 102.811572,0.348929385 L102.811572,0.348929385 C99.5742825,0.348929385 96.4433485,0.797403189 93.4732574,1.63305239" id="Fill-7" fill="#C5ECE7" mask="url(#mask-4)"></path>
            </g>
            <g transform="translate(30.387244, 148.625011)">
                <mask id="mask-6" fill="white">
                    <use xlink:href="#path-5"></use>
                </mask>
                <g id="Clip-10"></g>
                <path d="M60.9122779,13.6857859 C40.1881777,23.5516856 18.0715034,34.2532346 9.42109339,46.0440091 L9.42109339,46.0440091 C2.01498861,56.139385 -4.35899772,71.3204328 5.50113895,76.8158087 L5.50113895,76.8158087 C100.059954,18.9951708 141.511822,33.5019362 144.444191,36.1152392 L144.444191,36.1152392 C154.398109,44.9856948 163.003986,45.7720957 165.424487,25.6007289 L165.424487,25.6007289 C167.448383,8.73528474 146.925991,0.389271071 120.755763,0.387698901 L120.755763,0.387698901 C101.629613,0.386127563 79.4909339,4.84205011 60.9122779,13.6857859" id="Fill-9" fill="#CBEAE5" mask="url(#mask-6)"></path>
            </g>
            <g transform="translate(202.232346, 188.442779)">
                <mask id="mask-8" fill="white">
                    <use xlink:href="#path-7"></use>
                </mask>
                <g id="Clip-12"></g>
                <path d="M76.538656,2.2533713 C36.6878815,9.27020501 23.2284282,44.767221 0.0429612756,62.8874487 L0.0429612756,62.8874487 C13.2603645,57.6100228 26.0057175,49.8995216 38.0291116,44.4623007 L38.0291116,44.4623007 C87.7756492,21.9657859 125.709932,26.2687244 137.854351,42.6437813 L137.854351,42.6437813 C139.223872,44.4895444 140.675649,44.1704784 141.420137,43.8430296 L141.420137,43.8430296 C179.398428,27.1625285 149.32082,0.121548975 100.614784,0.117881239 L100.614784,0.117881239 C92.9807745,0.117881239 84.8982916,0.781161731 76.538656,2.2533713" id="Fill-11" fill="#CBEAE5" mask="url(#mask-8)"></path>
            </g>
            <g transform="translate(21.480638, 180.060091)">
                <mask id="mask-10" fill="white">
                    <use xlink:href="#path-9"></use>
                </mask>
                <g id="Clip-14"></g>
                <path d="M14.4847608,43.124738 C12.1716629,46.1514123 9.42004556,51.9852392 7.70892938,58.9580638 L7.70892938,58.9580638 C5.18102506,69.2551481 2.27537585,72.8261731 0.845079727,77.6498861 L0.845079727,77.6498861 C-0.892756264,83.5109567 4.09808656,84.7825057 7.92216401,84.78041 L7.92216401,84.78041 C10.7251253,84.7793622 12.1507062,87.8699544 11.4376538,91.9648975 L11.4376538,91.9648975 C10.5349431,97.1516856 14.4842369,100.766196 27.22959,103.030569 L27.22959,103.030569 C32.1161731,103.899226 38.4210023,104.786219 45.7542825,105.106856 L45.7542825,105.106856 C80.7514806,106.634601 138.348929,99.4469704 164.373508,80.0232346 L164.373508,80.0232346 C160.669408,81.1344647 156.681868,81.8019362 152.332825,81.9276765 L152.332825,81.9276765 C106.78549,83.2479499 101.568838,43.4563781 122.839909,20.8650342 L122.839909,20.8650342 C132.774442,10.3138497 148.245216,4.25159453 153.350797,4.68015945 L153.350797,4.68015945 C149.718474,2.8909795 145.368907,1.3538041 141.32426,1.3538041 L141.32426,1.3538041 C138.559021,1.13271071 131.151344,0.43118451 121.034487,0.43118451 L121.034487,0.43118451 C92.6397039,0.43118451 42.8942141,5.95537585 14.4847608,43.124738" id="Fill-13" fill="#AADDD2" mask="url(#mask-10)"></path>
            </g>
            <g transform="translate(47.676538, 216.734351)">
                <mask id="mask-12" fill="white">
                    <use xlink:href="#path-11"></use>
                </mask>
                <g id="Clip-16"></g>
                <path d="M232.368633,2.95908884 C214.699499,6.59874715 202.423052,11.6550797 192.58492,16.1707289 L192.58492,16.1707289 C180.127722,21.8892938 167.816173,29.318451 154.59877,34.595877 L154.59877,34.595877 C149.678132,38.4424829 144.318975,41.5063554 138.177608,43.3489749 L138.177608,43.3489749 C133.718542,46.6669476 75.4096128,76.1944419 0.464191344,65.1974032 L0.464191344,65.1974032 C1.91072893,68.3791572 3.8052164,71.6656948 5.45241458,74.8615945 L5.45241458,74.8615945 C27.8960137,118.429043 118.215285,115.225809 184.226856,88.1607289 L184.226856,88.1607289 C216.579317,74.8961731 249.009841,65.5232802 284.074624,63.5507289 L284.074624,63.5507289 C293.891276,62.9985194 303.726264,62.8418679 313.557062,62.8350569 L313.557062,62.8350569 C318.473508,62.8303417 323.389431,62.8659681 328.305353,62.9057859 L328.305353,62.9057859 C332.423872,62.9403645 337.925535,62.9979954 341.380774,63.0320501 L341.380774,63.0320501 C332.232118,61.2800683 318.738087,60.1232574 300.408292,57.3197722 L300.408292,57.3197722 C257.722073,50.791754 254.968884,11.0001822 287.194556,9.19056948 L287.194556,9.19056948 C280.317608,2.95070615 268.417859,0.505056948 255.714419,0.505056948 L255.714419,0.505056948 C247.910137,0.505056948 239.804601,1.42715262 232.368633,2.95908884" id="Fill-15" fill="#AADDD2" mask="url(#mask-12)"></path>
            </g>
            <g transform="translate(14.145786, 266.506560)">
                <mask id="mask-14" fill="white">
                    <use xlink:href="#path-13"></use>
                </mask>
                <g id="Clip-20"></g>
                <path d="M7.19968109,0.849271071 C0.344214123,2.09514806 -3.2608656,14.4129841 4.08341686,13.7517995 L4.08341686,13.7517995 C11.4287472,13.091139 13.4756948,7.88025057 15.0254442,6.61708428 L15.0254442,6.61708428 C19.422164,3.03558087 16.2026879,0.5123918 10.791139,0.5123918 L10.791139,0.5123918 C9.6715262,0.5123918 8.45865604,0.620318907 7.19968109,0.849271071" id="Fill-19" fill="#BAEBE1" mask="url(#mask-14)"></path>
            </g>
            <g transform="translate(12.050114, 247.121595)">
                <mask id="mask-16" fill="white">
                    <use xlink:href="#path-15"></use>
                </mask>
                <g id="Clip-22"></g>
                <path d="M6.2943508,0.664328018 C1.81642369,2.31833713 -2.72646925,8.52624146 3.57469248,7.99132118 L3.57469248,7.99132118 C7.77599089,7.63505695 9.93715262,5.39006834 10.2535991,2.53890661 L10.2535991,2.53890661 C10.4479727,0.789544419 9.30059226,0.338451025 8.14744875,0.338451025 L8.14744875,0.338451025 C7.42025057,0.338451025 6.69148064,0.517630979 6.2943508,0.664328018" id="Fill-21" fill="#BAEBE1" mask="url(#mask-16)"></path>
            </g>
            <g transform="translate(24.100228, 223.545285)">
                <mask id="mask-18" fill="white">
                    <use xlink:href="#path-17"></use>
                </mask>
                <g id="Clip-24"></g>
                <path d="M0.166082005,4.48578588 C0.362551253,7.1677221 3.47095672,6.18747153 5.39164009,4.48578588 L5.39164009,4.48578588 C7.3133713,2.78357631 7.29189066,0.125216401 4.60943052,0.0702050114 L4.60943052,0.0702050114 C4.55861048,0.0691571754 4.50726651,0.0686332574 4.45697039,0.0686332574 L4.45697039,0.0686332574 C1.5314123,0.0686332574 -0.0267198178,1.84838269 0.166082005,4.48578588" id="Fill-23" fill="#BAEBE1" mask="url(#mask-18)"></path>
            </g>
            <g transform="translate(11.526196, 281.700182)">
                <mask id="mask-20" fill="white">
                    <use xlink:href="#path-19"></use>
                </mask>
                <g id="Clip-26"></g>
                <path d="M1.79075171,6.05806378 C5.71070615,7.423918 9.19528474,2.83072893 9.51277904,1.4847836 L9.51277904,1.4847836 C9.82922551,0.137790433 6.79416856,0.25881549 5.83906606,0.21952164 L5.83906606,0.21952164 C5.79034169,0.217425968 5.74109339,0.216378132 5.6918451,0.216378132 L5.6918451,0.216378132 C2.35082005,0.216378132 -2.03332574,4.7252164 1.79075171,6.05806378" id="Fill-25" fill="#BAEBE1" mask="url(#mask-20)"></path>
            </g>
            <g transform="translate(0.000000, 278.556674)">
                <mask id="mask-22" fill="white">
                    <use xlink:href="#path-21"></use>
                </mask>
                <g id="Clip-28"></g>
                <path d="M5.19883827,0.220569476 C3.25248292,0.526537585 -0.00419134396,0.783781321 -4.04171289e-06,3.16970387 L-4.04171289e-06,3.16970387 L-4.04171289e-06,3.17756264 C0.00157175399,3.51863326 0.0702050114,3.90371298 0.218473804,4.33856492 L0.218473804,4.33856492 C1.40671982,7.82104784 9.00091116,3.39027335 8.76305239,1.68701595 L8.76305239,1.68701595 C8.59015945,0.44952164 7.65863326,0.0990205011 6.53116173,0.0990205011 L6.53116173,0.0990205011 C6.10469248,0.0990205011 5.6509795,0.149316629 5.19883827,0.220569476" id="Fill-27" fill="#BAEBE1" mask="url(#mask-22)"></path>
            </g>
            <g transform="translate(298.633257, 234.023645)">
                <mask id="mask-24" fill="white">
                    <use xlink:href="#path-23"></use>
                </mask>
                <g id="Clip-30"></g>
                <path d="M7.02626424,1.27416856 C-0.510820046,2.83649203 -0.650182232,7.6743508 2.28952164,8.22498861 L2.28952164,8.22498861 C7.04198178,9.11407745 22.7951481,3.41908884 16.457836,1.00382688 L16.457836,1.00382688 C15.2936902,0.560068337 14.0378588,0.402892938 12.8244647,0.402892938 L12.8244647,0.402892938 C10.3190888,0.402892938 7.99446469,1.07298405 7.02626424,1.27416856" id="Fill-29" fill="#B9EBE0" mask="url(#mask-24)"></path>
            </g>
            <g transform="translate(321.161731, 228.260547)">
                <mask id="mask-26" fill="white">
                    <use xlink:href="#path-25"></use>
                </mask>
                <g id="Clip-32"></g>
                <path d="M8.28366743,0.500341686 C8.24070615,0.50191344 8.19722096,0.508200456 8.15268793,0.512915718 L8.15268793,0.512915718 C4.92482916,0.885421412 -2.18997722,5.97842825 1.12747153,6.68309795 L1.12747153,6.68309795 C4.48997722,7.39667426 16.7758542,3.41542141 9.52168565,0.500341686 L9.52168565,0.500341686 C9.52168565,0.500341686 9.10883827,0.495102506 8.74209567,0.495102506 L8.74209567,0.495102506 C8.55872437,0.495102506 8.38687927,0.496150342 8.28366743,0.500341686" id="Fill-31" fill="#B9EBE0" mask="url(#mask-26)"></path>
            </g>
            <g transform="translate(190.182232, 246.597677)">
                <mask id="mask-28" fill="white">
                    <use xlink:href="#path-27"></use>
                </mask>
                <g id="Clip-34"></g>
                <path d="M5.76728929,0.104259681 C5.76728929,0.104259681 2.16116173,0.602505695 0.735580866,2.13548975 L0.735580866,2.13548975 C-0.69,3.66794989 4.63457859,4.23954442 6.7543508,3.12255125 L6.7543508,3.12255125 C9.8433713,1.49473804 7.40400911,0.0785876993 6.05596811,0.0785876993 L6.05596811,0.0785876993 C5.95223235,0.0785876993 5.85530752,0.0869703872 5.76728929,0.104259681" id="Fill-33" fill="#BAEBE1" mask="url(#mask-28)"></path>
            </g>
            <g transform="translate(194.373576, 236.119317)">
                <mask id="mask-30" fill="white">
                    <use xlink:href="#path-29"></use>
                </mask>
                <g id="Clip-36"></g>
                <path d="M2.36496583,0.326400911 C0.939384966,0.682665148 -1.11332574,2.26280182 1.57594533,2.2648998 L1.57594533,2.2648998 C4.26574032,2.26699317 4.41296128,0.841412301 4.22068337,0.485148064 L4.22068337,0.485148064 C4.12952164,0.315922551 3.70829157,0.271389522 3.29020501,0.271389522 L3.29020501,0.271389522 C2.82548975,0.271389522 2.36496583,0.326400911 2.36496583,0.326400911" id="Fill-35" fill="#BAEBE1" mask="url(#mask-30)"></path>
            </g>
            <g transform="translate(137.266515, 232.451891)">
                <mask id="mask-32" fill="white">
                    <use xlink:href="#path-31"></use>
                </mask>
                <g id="Clip-38"></g>
                <path d="M26.9503417,0.385079727 L2.3204328,9.44781321 C1.29826879,9.82398633 0.471002278,11.0698633 0.482409474,12.2161959 L0.482409474,12.2161959 L0.647562642,28.8925057 C0.655421412,29.6872893 1.06617312,30.2290205 1.65243736,30.3699544 L1.65243736,30.3699544 L1.63724374,30.3772893 L3.10473804,30.7476993 L4.49574032,30.2028246 L3.54063781,29.944533 L23.4269932,22.7941002 L25.1218679,24.6498178 L26.3913212,24.987221 L27.0498861,23.3106834 L25.8689749,22.8763554 C26.1246469,22.271754 26.3494077,21.7441686 26.3494077,21.7441686 L26.3494077,21.7441686 L26.9639636,21.5230752 C27.9787927,21.1579043 28.8092027,19.9067882 28.8092027,18.7431663 L28.8092027,18.7431663 L28.8092027,1.81747153 C28.8092027,1.47273349 28.7290433,1.18091116 28.5996355,0.940432802 L28.5996355,0.940432802 L29.2712984,0.709908884 L29.2712984,0.709384966 L28.168451,0.410751708 L27.7587472,0.300205011 L27.7456492,0.304920273 C27.6660137,0.291298405 27.5837585,0.283439636 27.4994077,0.283439636 L27.4994077,0.283439636 C27.3259909,0.283439636 27.1420957,0.314874715 26.9503417,0.385079727" id="Fill-37" fill="#7CB3A8" mask="url(#mask-32)"></path>
            </g>
            <g transform="translate(138.838269, 232.975809)">
                <mask id="mask-34" fill="white">
                    <use xlink:href="#path-33"></use>
                </mask>
                <g id="Clip-40"></g>
                <path d="M26.648041,0.199088838 L2.01813212,9.26129841 C0.995444191,9.63694761 0.168701595,10.8833485 0.179595319,12.0296811 L0.179595319,12.0296811 L0.344738041,28.705467 C0.356264237,29.8523235 1.19610478,30.4915034 2.21145786,30.1273804 L2.21145786,30.1273804 L23.1246925,22.6075854 L24.8195672,24.463303 C24.8279499,24.4261048 26.0465831,21.5571298 26.0465831,21.5571298 L26.0465831,21.5571298 L26.6616629,21.3360364 C27.676492,20.9713895 28.5069021,19.7202733 28.5069021,18.5566515 L28.5069021,18.5566515 L28.5069021,1.6304328 C28.5069021,0.692095672 27.9630752,0.0916856492 27.2159681,0.0916856492 L27.2159681,0.0916856492 C27.0367882,0.0916856492 26.846082,0.126264237 26.648041,0.199088838" id="Fill-39" fill="#C9E9E3" mask="url(#mask-34)"></path>
            </g>
            <path d="M152.512319,242.709 C152.883253,241.710936 153.497809,241.486175 153.877125,242.209182 L154.490109,243.379091 C154.868902,244.10367 155.865394,244.559478 156.704187,244.391301 L158.060087,244.120959 C158.898879,243.953829 159.090633,244.547952 158.486032,245.440708 L157.509973,246.882531 C156.905895,247.774239 156.532342,249.236494 156.679039,250.132394 L156.915326,251.580503 C157.061499,252.476927 156.567968,253.064763 155.818765,252.887679 L154.606943,252.602144 C153.856692,252.426107 152.63282,252.869342 151.887285,253.586585 L150.682273,254.744444 C149.937262,255.46064 149.440064,255.231688 149.576806,254.23572 L149.798424,252.626244 C149.93569,251.630276 149.549039,250.447793 148.938674,249.999843 L147.951613,249.276312 C147.340724,248.828886 147.525667,248.10064 148.363412,247.657405 L149.716692,246.940686 C150.554437,246.496927 151.542547,245.318112 151.912957,244.321096 L152.512319,242.709 Z" id="Fill-41" fill="#E2F4FD"></path>
            <g transform="translate(149.840547, 244.502005)">
                <mask id="mask-36" fill="white">
                    <use xlink:href="#path-35"></use>
                </mask>
                <g id="Clip-44"></g>
                <path d="M3.05758542,0.70833713 L2.71546697,1.62728929 C2.50485194,2.19574032 1.94164009,2.86740319 1.4643508,3.12045558 L1.4643508,3.12045558 L0.692095672,3.5285877 C0.215330296,3.78111617 0.109498861,4.19658314 0.45738041,4.45225513 L0.45738041,4.45225513 L1.01954442,4.86562642 C1.36690205,5.12129841 1.58747153,5.79610478 1.50888383,6.36455581 L1.50888383,6.36455581 L1.38209567,7.28298405 C1.30350797,7.85143508 1.58747153,7.98189066 2.01236902,7.57271071 L2.01236902,7.57271071 L2.70027335,6.9115262 C3.12517084,6.50234624 3.82355353,6.24876993 4.25159453,6.34883827 L4.25159453,6.34883827 L4.94316629,6.51072893 C5.37068337,6.61079727 5.65202733,6.27548975 5.56820046,5.76519362 L5.56820046,5.76519362 L5.43302961,4.94002278 C5.34920273,4.42972665 5.56243736,3.59722096 5.90612756,3.0890205 L5.90612756,3.0890205 L6.46200456,2.26751708 C6.80621868,1.75879271 6.69671982,1.42034169 6.21838269,1.51569476 L6.21838269,1.51569476 L5.44612756,1.66972665 C4.96831435,1.76507973 4.39986333,1.50469248 4.18400911,1.0918451 L4.18400911,1.0918451 L3.83455581,0.424897494 C3.74915718,0.260911162 3.6422779,0.182323462 3.53173121,0.182323462 L3.53173121,0.182323462 C3.36302961,0.182323462 3.18489749,0.365170843 3.05758542,0.70833713" id="Fill-43" fill="#44D6BC" mask="url(#mask-36)"></path>
            </g>
            <g transform="translate(52.391800, 251.836856)">
                <mask id="mask-38" fill="white">
                    <use xlink:href="#path-37"></use>
                </mask>
                <g id="Clip-46"></g>
                <path d="M36.6810706,0.246765376 L2.85430524,11.768246 C1.44968109,12.2465831 0.313302961,13.8853986 0.328345982,15.4105239 L0.328345982,15.4105239 L0.548018223,37.5926879 C0.556400911,38.3995216 0.882801822,39.0229841 1.39571754,39.361959 L1.39571754,39.361959 C1.56703872,39.4756492 1.75826879,39.5573804 1.96626424,39.6029613 L1.96626424,39.6029613 L4.2390205,40.4768565 L5.44036446,39.9309339 L3.85236902,39.2760364 L31.8400683,29.9770159 L34.167836,32.481344 C34.1688838,32.4792483 34.1735991,32.4666743 34.1788383,32.4551481 L34.1788383,32.4551481 L34.1819818,32.493918 L35.8197494,33.2761276 L36.2126879,32.2775399 L34.6435535,31.3900228 C35.1423235,30.2552164 35.8538041,28.6431207 35.8538041,28.6431207 L35.8538041,28.6431207 L36.6988838,28.3623007 C38.0930296,27.8986333 39.2335991,26.2535308 39.2335991,24.705877 L39.2335991,24.705877 L39.2335991,2.19102506 C39.2335991,1.91701595 39.195877,1.66448747 39.1288155,1.43605923 L39.1288155,1.43605923 L40.051959,1.19400911 L38.3382232,0.362551253 C38.0746925,0.202756264 37.7650569,0.116309795 37.426082,0.116309795 L37.426082,0.116309795 C37.1903189,0.116309795 36.9398861,0.158223235 36.6810706,0.246765376" id="Fill-45" fill="#7CB3A8" mask="url(#mask-38)"></path>
            </g>
            <g transform="translate(53.963554, 252.360774)">
                <mask id="mask-40" fill="white">
                    <use xlink:href="#path-39"></use>
                </mask>
                <g id="Clip-48"></g>
                <path d="M36.7612301,0.517107062 L2.93394077,12.0385877 C1.52984055,12.5169248 0.393462415,14.1562642 0.408505435,15.6808656 L0.408505435,15.6808656 L0.628177677,37.8630296 C0.643371298,39.3881549 1.79651481,40.2568109 3.19066059,39.7936674 L3.19066059,39.7936674 L31.9202278,30.2473576 L34.2479954,32.7516856 C34.2605695,32.7029613 35.9344875,28.9139863 35.9344875,28.9139863 L35.9344875,28.9139863 L36.7795672,28.6331663 C38.1731891,28.1694989 39.3142825,26.5243964 39.3142825,24.9767426 L39.3142825,24.9767426 L39.3142825,2.46189066 C39.3142825,1.20082005 38.5519818,0.386651481 37.5099089,0.386651481 L37.5099089,0.386651481 C37.2730979,0.386651481 37.0216173,0.42856492 36.7612301,0.517107062" id="Fill-47" fill="#C9E9E3" mask="url(#mask-40)"></path>
            </g>
            <path d="M67.2444032,274.252583 C67.2695513,278.083995 70.1217608,280.243062 73.6141982,279.074724 C77.1066355,277.906387 79.92741,273.83764 79.9143575,269.987367 C79.9012141,266.137093 77.0495285,263.978551 73.5445171,265.165226 C70.0395057,266.352424 67.2192551,270.421171 67.2444032,274.252583" id="Fill-49" fill="#F2F4F9"></path>
            <g transform="translate(69.157175, 267.554396)">
                <mask id="mask-42" fill="white">
                    <use xlink:href="#path-41"></use>
                </mask>
                <g id="Clip-52"></g>
                <path d="M6.39284738,0.461047836 C5.08567198,0.902710706 4.58585421,1.85938497 4.42186788,2.28794989 L4.42186788,2.28794989 C4.25473804,1.97936219 3.73763098,1.35799544 2.41683371,1.80384966 L2.41683371,1.80384966 C1.43920273,2.133918 0.165558087,3.57940774 0.593599089,5.63683371 L0.593599089,5.63683371 C1.02164009,7.69530752 4.42658314,8.56605923 4.42658314,8.56605923 L4.42658314,8.56605923 L4.45801822,8.55505695 C4.45801822,8.55505695 7.84252847,5.40316629 8.24856492,3.06020501 L8.24856492,3.06020501 C8.58649203,1.10808656 7.7529385,0.376173121 6.90052392,0.376173121 L6.90052392,0.376173121 C6.72920273,0.376173121 6.55683371,0.405512528 6.39284738,0.461047836" id="Fill-51" fill="#44D6BC" mask="url(#mask-42)"></path>
            </g>
            <g transform="translate(324.305239, 248.169431)">
                <mask id="mask-44" fill="white">
                    <use xlink:href="#path-43"></use>
                </mask>
                <g id="Clip-54"></g>
                <path d="M26.5993166,0.233143508 L2.37020501,9.40537585 C1.36428246,9.78574032 0.532300683,11.0709112 0.521822323,12.2607289 L0.521822323,12.2607289 L0.364538054,29.5625968 C0.357835991,30.3002733 0.671138952,30.8283827 1.15104784,31.0290433 L1.15104784,31.0290433 L1.14947608,31.030615 L1.15733485,31.0327107 C1.16624146,31.0363781 1.17671982,31.037426 1.18615034,31.0416173 L1.18615034,31.0416173 L2.89307517,31.5597722 L3.56002278,30.6848292 L3.27082005,30.5769021 L23.0571071,22.808246 L24.808041,25.734328 L24.8059453,25.7453303 L24.8174715,25.7489977 L24.8258542,25.7647153 C24.8258542,25.7647153 24.8284738,25.7552847 24.8284738,25.7531891 L24.8284738,25.7531891 L26.1084055,26.2042825 L26.5207289,24.3192255 L25.3890661,23.7382005 C25.6787927,22.7045103 25.9727107,21.6629613 25.9727107,21.6629613 L25.9727107,21.6629613 L26.5867426,21.4224829 C27.5994761,21.0248292 28.4277904,19.7469932 28.4277904,18.5833713 L28.4277904,18.5833713 L28.4277904,1.6566287 C28.4277904,1.47797267 28.4031663,1.31712984 28.366492,1.1646697 L28.366492,1.1646697 L28.935467,0.6638041 L27.6581549,0.231571754 C27.5051708,0.162938497 27.3359453,0.125740319 27.1541458,0.125740319 L27.1541458,0.125740319 C26.9791572,0.125740319 26.7931663,0.159794989 26.5993166,0.233143508" id="Fill-53" fill="#7CB3A8" mask="url(#mask-44)"></path>
            </g>
            <g transform="translate(325.876993, 248.693349)">
                <mask id="mask-46" fill="white">
                    <use xlink:href="#path-45"></use>
                </mask>
                <g id="Clip-56"></g>
                <path d="M26.3101139,0.149840547 L2.08047836,9.32154897 C1.07507973,9.70243736 0.24309795,10.9870843 0.23261959,12.1763781 L0.23261959,12.1763781 L0.0748108967,29.4787699 C0.0639179954,30.6685877 0.884373576,31.3166743 1.89710706,30.9184966 L1.89710706,30.9184966 L22.7673804,22.7238952 L24.5366515,25.6803645 C24.5403189,25.6295444 25.683508,21.5791344 25.683508,21.5791344 L25.683508,21.5791344 L26.2975399,21.3381321 C27.3097494,20.9410023 28.1385877,19.6631663 28.1385877,18.4995444 L28.1385877,18.4995444 L28.1385877,1.57280182 C28.1385877,0.637084282 27.6068109,0.0398177677 26.8754214,0.0398177677 L26.8754214,0.0398177677 C26.6972893,0.0398177677 26.5071071,0.0749202733 26.3101139,0.149840547" id="Fill-55" fill="#C9E9E3" mask="url(#mask-46)"></path>
            </g>
            <path d="M345.547651,267.869376 L334.453688,272.182793 C333.6128,272.509718 332.930134,271.972178 332.936895,270.987736 L332.993005,262.859148 C332.999815,261.874706 333.690863,260.807485 334.528608,260.488419 L345.580134,256.276118 C346.417879,255.957052 347.102116,256.491973 347.099504,257.465936 L347.081159,265.50441 C347.079064,266.478374 346.38854,267.542451 345.547651,267.869376" id="Fill-57" fill="#E2F4FD"></path>
            <g transform="translate(338.451025, 261.791298)">
                <mask id="mask-48" fill="white">
                    <use xlink:href="#path-47"></use>
                </mask>
                <g id="Clip-60"></g>
                <path d="M0.25357631,0.88594533 L0.234187589,4.82738041 C0.233143508,5.06471526 0.451617312,5.1270615 0.628701595,4.94107062 L0.628701595,4.94107062 L3.56316629,1.84471526 C3.73867882,1.65924829 3.74025057,1.36323462 3.56473804,1.3129385 L3.56473804,1.3129385 L0.650182232,0.467334852 C0.633940774,0.46261959 0.617175399,0.46 0.599886105,0.46 L0.599886105,0.46 C0.435899772,0.46 0.255148064,0.67166287 0.25357631,0.88594533" id="Fill-59" fill="#44D6BC" mask="url(#mask-48)"></path>
            </g>
            <g transform="translate(202.756264, 264.410888)">
                <mask id="mask-50" fill="white">
                    <use xlink:href="#path-49"></use>
                </mask>
                <g id="Clip-62"></g>
                <path d="M32.9298178,0.636036446 L2.56615034,12.956492 C1.30560364,13.467836 0.27453303,15.1710934 0.27453303,16.7412756 L0.27453303,16.7412756 L0.27453303,39.5825285 C0.27453303,40.691139 0.789544419,41.4398178 1.53560364,41.6006606 L1.53560364,41.6006606 L3.81464692,42.4934169 L5.60225513,41.7620273 L3.84136674,40.9483827 L28.5378132,30.6387244 L30.6387244,33.0513667 C30.6492027,33.0021185 32.1664692,29.1246014 32.1664692,29.1246014 L32.1664692,29.1246014 L32.9303417,28.8055353 C34.1908884,28.2789977 35.221959,26.5825513 35.221959,25.0343736 L35.221959,25.0343736 L35.221959,2.52004556 C35.221959,2.29947608 35.1983827,2.09462415 35.1590888,1.903918 L35.1590888,1.903918 L36.2325968,1.50416856 L34.2427563,0.616651481 C34.2244191,0.607744875 34.206082,0.598838269 34.1877449,0.591503417 L34.1877449,0.591503417 L34.1631207,0.580501139 L34.1599772,0.582072893 C33.9986105,0.520250569 33.8236219,0.487767654 33.6386788,0.487767654 L33.6386788,0.487767654 C33.4154897,0.487767654 33.1771071,0.534920273 32.9298178,0.636036446" id="Fill-61" fill="#7CB3A8" mask="url(#mask-50)"></path>
            </g>
            <g transform="translate(204.851936, 265.458724)">
                <mask id="mask-52" fill="white">
                    <use xlink:href="#path-51"></use>
                </mask>
                <g id="Clip-64"></g>
                <path d="M32.7569248,0.444806378 L2.39220957,12.7663098 C1.13166287,13.2771298 0.100592255,14.9803872 0.100592255,16.5505695 L0.100592255,16.5505695 L0.100592255,39.3918223 C0.100592255,40.9620046 1.13166287,41.8165148 2.39220957,41.2899772 L2.39220957,41.2899772 L28.3643964,30.4485421 L30.4647836,32.8611845 C30.4763098,32.8114123 31.9930524,28.9338952 31.9930524,28.9338952 L31.9930524,28.9338952 L32.7569248,28.6148292 C34.0169476,28.0888155 35.0485421,26.392369 35.0485421,24.8436674 L35.0485421,24.8436674 L35.0485421,2.32986333 C35.0485421,1.08712984 34.3842141,0.296013667 33.4705011,0.296013667 L33.4705011,0.296013667 C33.2457403,0.296013667 33.0057859,0.343690205 32.7569248,0.444806378" id="Fill-63" fill="#C9E9E3" mask="url(#mask-52)"></path>
            </g>
            <path d="M222.426451,287.649795 C224.745836,286.693645 226.716292,287.128497 227.473353,289.439499 C228.701417,287.369499 229.458478,284.928565 229.458478,282.580888 C229.458478,277.79123 226.310255,275.191549 222.426451,276.774829 C218.542647,278.358109 215.394424,283.547517 215.394424,288.364943 C215.394424,290.726241 216.151485,292.553667 217.380073,293.616173 C218.13661,290.669134 220.10759,288.605421 222.426451,287.649795" id="Fill-65" fill="#E2F4FD"></path>
            <g transform="translate(216.902050, 286.939362)">
                <mask id="mask-54" fill="white">
                    <use xlink:href="#path-53"></use>
                </mask>
                <g id="Clip-68"></g>
                <path d="M5.52419134,0.710432802 C3.2053303,1.66605923 1.2343508,3.72977221 0.477813212,6.67681093 L0.477813212,6.67681093 C1.75617312,7.78018223 3.54378132,8.05366743 5.52419134,7.23268793 L5.52419134,7.23268793 C7.50460137,6.41066059 9.2932574,4.65605923 10.5710934,2.50013667 L10.5710934,2.50013667 C10.0607973,0.94095672 8.99724374,0.235763098 7.64710706,0.23523918 L7.64710706,0.23523918 C6.99640091,0.23523918 6.27915718,0.399225513 5.52419134,0.710432802" id="Fill-67" fill="#44D6BC" mask="url(#mask-54)"></path>
            </g>
            <g transform="translate(218.997722, 279.080592)">
                <mask id="mask-56" fill="white">
                    <use xlink:href="#path-55"></use>
                </mask>
                <g id="Clip-70"></g>
                <path d="M3.42851936,0.419658314 C1.7032574,1.12537585 0.304396355,3.39341686 0.304396355,5.48437358 L0.304396355,5.48437358 C0.304396355,7.57585421 1.7032574,8.69494305 3.42851936,7.98451025 L3.42851936,7.98451025 C5.15430524,7.27355353 6.55369021,5.00603645 6.55369021,2.91979499 L6.55369021,2.91979499 C6.55369021,1.25687927 5.66460137,0.208519362 4.43025057,0.208519362 L4.43025057,0.208519362 C4.11589977,0.208519362 3.7790205,0.276628702 3.42851936,0.419658314" id="Fill-69" fill="#44D6BC" mask="url(#mask-56)"></path>
            </g>
            <g transform="translate(233.143508, 295.845968)">
                <mask id="mask-58" fill="white">
                    <use xlink:href="#path-57"></use>
                </mask>
                <g id="Clip-72"></g>
                <polygon id="Fill-71" mask="url(#mask-58)" points="0.272961276 1.60738041 2.17373576 2.47394077 2.56300683 1.32027335 0.0874943052 0.288678815"></polygon>
            </g>
            <path d="M370.108875,193.44562 L231.212975,193.44562 C230.771312,193.44562 230.648715,192.840494 231.054228,192.667601 L268.424251,176.789743 C268.474547,176.768262 268.527986,176.75726 268.582998,176.75726 L397.896961,176.75726 C398.312428,176.75726 398.458077,177.308421 398.097622,177.514321 L370.310059,193.39218 C370.248761,193.427282 370.179604,193.44562 370.108875,193.44562" id="Fill-73" fill="#FFFFFF"></path>
            <g transform="translate(242.574032, 177.440501)">
                <mask id="mask-60" fill="white">
                    <use xlink:href="#path-59"></use>
                </mask>
                <g id="Clip-76"></g>
                <path d="M32.564123,-0.00157175399 C32.4949658,-0.00157175399 32.4258087,0.0125740319 32.3618907,0.0403416856 L32.3618907,0.0403416856 L0.783257403,13.6831663 C0.273485194,13.9026879 0.430136674,14.6634169 0.986013667,14.6634169 L0.986013667,14.6634169 L116.586948,14.6634169 C116.673394,14.6634169 116.758793,14.6419362 116.834761,14.6000228 L116.834761,14.6000228 L141.480911,0.95667426 C141.942483,0.701002278 141.760683,-0.00157175399 141.232574,-0.00157175399 L141.232574,-0.00157175399 L32.564123,-0.00157175399 Z" id="Fill-75" fill="#4C7EEB" mask="url(#mask-60)"></path>
            </g>
            <g transform="translate(231.571754, 176.916583)">
                <mask id="mask-62" fill="white">
                    <use xlink:href="#path-61"></use>
                </mask>
                <g id="Clip-78"></g>
                <path d="M138.941481,16.2629385 L0.308587699,16.2629385 L0.308587699,20.4197039 L138.6418,20.4197039 C138.838269,20.4197039 139.031071,20.3688838 139.201344,20.2724829 L139.201344,20.2724829 L166.731139,4.52246014 L166.731139,0.365694761 L138.941481,16.2629385 Z" id="Fill-77" fill="#D8D8D8" mask="url(#mask-62)"></path>
            </g>
            <g transform="translate(370.410023, 176.916583)">
                <mask id="mask-64" fill="white">
                    <use xlink:href="#path-63"></use>
                </mask>
                <g id="Clip-80"></g>
                <polygon id="Fill-79" fill="#C0BBC2" mask="url(#mask-64)" points="0.4076082 16.0800911 0.4076082 20.2363326 27.8928702 4.52246014 27.8928702 0.365694761"></polygon>
            </g>
            <g transform="translate(376.478360, 182.579453)" fill="#7196A7" id="Fill-81">
                <path d="M7.36392483,1.40855581 C7.36392483,1.96914806 5.71987016,2.42338497 3.69230752,2.42338497 C1.66422096,2.42338497 0.020166287,1.96914806 0.020166287,1.40855581 C0.020166287,0.848487472 1.66422096,0.393726651 3.69230752,0.393726651 C5.71987016,0.393726651 7.36392483,0.848487472 7.36392483,1.40855581"></path>
            </g>
            <g transform="translate(279.248292, 191.586287)">
                <mask id="mask-66" fill="white">
                    <use xlink:href="#path-65"></use>
                </mask>
                <g id="Clip-87"></g>
                <polygon id="Fill-86" mask="url(#mask-66)" points="2.96851936 0.517630979 0.364646925 1.59323462 22.6814579 1.71321185 23.1231207 0.517630979"></polygon>
            </g>
            <g transform="translate(193.542141, 50.356219)">
                <g id="编组-2" transform="translate(0.120743, 0.668748)" fill="#333333">
                    <path d="M15.809341,10.1010763 C4.48256113,18.1512979 -12.9584527,37.362785 19.1887562,47.601745 C50.0820048,57.4413779 50.9169645,45.8944156 77.4479126,36.9245703 C90.376264,32.5534826 95.0583883,42.9949813 103.497218,41.6653818 C113.337116,40.1149277 113.337116,34.0621936 113.337116,34.0621936 C113.337116,34.0621936 108.417167,36.8649375 103.153693,30.215662 C98.2887735,24.0696451 114.052497,10.4115931 85.0757407,11.5801839 C46.6309424,13.130851 54.2356146,2.07321713 43.5528413,1.09822006 C36.6899755,0.471862179 27.1361208,2.05106778 15.809341,10.1010763 Z" id="Fill-88"></path>
                </g>
                <path d="M142.778109,89.8152711 C142.020524,89.8152711 98.1905923,123.414132 94.1485649,129.098118 C88.2199089,137.435226 89.9325968,139.426114 94.1485649,138.571604 C112.842483,134.782105 134.295353,119.184018 138.104761,118.866524 C139.620979,118.74026 140.126036,120.382743 141.009886,124.677298 C141.739704,128.219508 137.978497,128.213745 140.252301,128.213745 C142.526105,128.213745 146.820137,127.708688 145.557494,122.403494 C144.294328,117.098301 145.051913,113.308802 145.051913,109.519827 C145.051913,105.730328 119.094396,121.326843 122.694761,118.866524 C124.924556,117.34297 146.880387,105.282902 150.151207,101.685157 C158.000023,93.0515125 142.778109,89.8152711 142.778109,89.8152711" id="Fill-90" fill="#FFD6CB"></path>
                <path d="M166.986317,97.6661298 C167.358298,96.8949226 167.593538,96.0734191 167.684175,95.2126219 C167.686271,95.1869499 167.687843,95.1633736 167.689938,95.1387494 C167.826681,93.6932597 167.557387,92.1419385 166.801374,90.5361298 C165.024768,86.759205 159.047387,83.8121663 153.048526,81.7337836 C146.06208,79.3132825 139.460713,80.8536014 131.49454,64.88982 C131.160804,64.2207768 130.849073,63.6224624 130.554107,63.0749681 C132.614153,62.8360615 135.121624,62.5950592 137.927205,62.4258337 C137.858048,59.6312551 138.928936,57.0734875 139.820121,54.5649681 C139.618412,54.5461071 139.420371,54.5303895 139.215519,54.5099567 C131.131989,53.703123 126.333424,54.5424396 123.454494,55.5546492 C122.956772,54.9369499 122.516157,54.3092961 122.131601,53.6868815 C119.807501,49.9282938 119.410895,46.3640797 119.410895,46.3640797 L113.979437,46.0272005 C113.979437,47.2170182 114.410098,48.8919841 114.802513,51.0458109 C115.164016,53.0288405 115.487797,55.4231458 115.418116,58.2187722 C112.672786,59.9377472 106.260554,63.8100251 99.261533,67.0405034 C99.9421025,69.6490911 100.470212,72.224672 101.716613,74.5487722 C106.757228,72.0433964 111.478777,69.5170638 113.992535,68.1522574 C113.860508,69.4222346 113.927569,70.5303212 114.430531,71.4649909 C115.46003,73.3793872 117.627478,73.8723941 120.371761,76.3059932 C126.840052,82.0423713 131.07331,80.5947859 132.925884,86.6575649 C132.944221,86.7178155 132.96151,86.7791139 132.979323,86.8398884 C129.36167,86.4123713 125.673811,86.1116424 122.07397,86.0189089 C124.084768,92.1927585 125.080212,99.3185672 121.74233,105.073282 C121.827205,105.117292 121.914175,105.161825 121.999574,105.205834 L103.311419,120.24228 C103.311419,120.24228 109.047273,120.24228 111.121989,122.92736 C113.196704,125.61244 114.783128,126.344877 114.783128,126.344877 C114.783128,126.344877 139.473811,111.12244 143.623241,111.000367 C144.513378,110.974171 145.84151,110.700686 147.399118,110.259547 C155.125337,108.9508 160.100986,106.019478 163.189483,103.010093 C163.448298,102.785333 163.666772,102.568431 163.831282,102.363579 C163.836522,102.356768 163.838617,102.350481 163.843333,102.344194 C165.393606,100.685469 166.395861,99.0398428 166.986317,97.6661298" id="Fill-92" fill="#B0241F"></path>
                <path d="M205.062476,51.6148383 C198.04669,52.7706014 197.902089,53.8613986 180.738011,52.9812164 C165.457943,52.1974351 156.833205,56.1535399 139.82054,54.5650205 C138.928831,57.0735399 137.858467,59.6313075 137.9271,62.4258861 C140.242294,62.2865239 142.7571,62.1953622 145.390312,62.1953622 C156.833205,62.1953622 168.05972,59.47518 182.315005,57.4188018 C199.15792,54.9888702 201.30546,57.2956811 205.99767,55.3833804 C206.732203,55.0842232 206.614321,54.7117175 207.152909,54.3109203 C207.89792,53.756615 209.250677,53.1635399 210.027647,52.7700774 C212.228103,51.6562278 213.79095,50.5146105 213.149674,50.2395535 C212.956872,50.1572984 212.984116,50.8174351 209.243342,51.4498041 C208.023137,51.6562278 207.342043,51.239713 205.062476,51.6148383" id="Fill-94" fill="#FFD6CB"></path>
                <path d="M88.6805376,71.0629886 C76.2160046,74.5061777 78.6941367,74.1582961 65.6852528,78.3239681 C54.8212893,81.8033075 49.3971663,80.9105513 43.7655718,82.7819863 C42.2598314,83.2828519 41.37441,84.2049476 40.1919271,85.8049932 C38.3215399,88.3355171 41.5944556,85.0898451 47.022246,84.4113713 C49.0969613,84.1520319 50.8468474,84.2929658 52.9818132,83.8795945 C65.4458223,81.4659043 80.1684419,82.8003235 90.0600137,78.6535125 C93.1904237,77.340574 98.2792392,76.2581595 101.716665,74.549139 C100.470264,72.2245148 99.9421549,69.6489339 99.2615854,67.0403462 C95.7518588,68.6603007 92.095959,70.1199362 88.6805376,71.0629886" id="Fill-96" fill="#FFD6CB"></path>
                <path d="M52.4595718,83.7695194 C52.4595718,83.7695194 49.3113485,85.8091321 46.2652893,86.6217289 C44.3147426,87.1425034 43.1013485,88.4020023 43.1652665,87.7078109 C43.2166105,87.1503622 45.8126241,85.2024351 47.3518952,84.3112506 C48.8906424,83.4200661 52.4595718,83.7695194 52.4595718,83.7695194" id="Fill-98" fill="#FFD6CB"></path>
                <path d="M115.4561,27.1490205 C106.489244,27.9589977 105.937034,32.2975626 106.462,38.0470387 C106.462,38.0470387 110.05503,45.9471982 114.2579,48.3430752 C118.460246,50.7384282 123.140929,52.4212528 123.666419,42.8382688 C124.191909,33.2558087 119.913071,26.7461276 115.4561,27.1490205" id="Fill-100" fill="#FFD6CB"></path>
                <path d="M109.254011,43.0175011 C109.254011,43.0175011 109.69515,41.5741071 110.055082,38.0140843 C110.415538,34.4540615 115.214103,29.7885718 115.214103,29.7885718 C115.214103,29.7885718 114.712189,29.3762483 113.653351,28.9021025 C113.229501,28.7119203 111.810207,28.1172733 111.810207,28.1172733 C111.810207,28.1172733 113.512417,28.6390957 114.066198,28.860713 C115.063214,29.2594146 115.53736,29.60782 115.53736,29.60782 C115.53736,29.60782 119.988043,29.7943349 120.756631,30.3250638 C121.525743,30.8563166 120.598932,28.5049727 117.483715,27.327205 C114.350162,26.1421025 110.916927,26.343287 108.71228,28.5479339 C106.546403,30.7138109 105.242895,32.0566128 105.775196,35.7680478 C106.264011,39.1729909 109.254011,43.0175011 109.254011,43.0175011" id="Fill-102" fill="#333333"></path>
                <path d="M110.332077,40.7317517 C110.332077,40.7317517 108.71841,39.2647813 108.278319,40.3283349 C107.838228,41.3918884 107.948251,42.3087449 108.791759,43.0055558 C109.635267,43.7023667 110.478774,44.5458747 110.845517,43.9957608 C111.21226,43.4456469 110.332077,40.7317517 110.332077,40.7317517" id="Fill-104" fill="#FFD6CB"></path>
                <path d="M198.140524,54.7322027 C198.140524,54.7322027 201.859818,54.6101298 205.131686,54.8788998 C208.592688,55.1633872 210.306424,53.778672 209.489112,54.8788998 C208.672323,55.9791276 202.51,56.8959841 199.876788,56.6759385 C197.2441,56.4558929 198.140524,54.7322027 198.140524,54.7322027" id="Fill-106" fill="#FFD6CB"></path>
                <path d="M209.344353,51.5874374 C209.399364,51.5691002 210.949114,51.5780068 213.433533,51.2390319 C213.957975,51.1672551 214.354581,51.1263895 214.222554,51.3673918 C214.020321,51.7341344 209.880321,52.9349544 209.421893,52.9904897 C208.963465,53.0455011 209.344353,51.5874374 209.344353,51.5874374" id="Fill-108" fill="#FFD6CB"></path>
                <path d="M45.0602779,83.3568815 C45.0602779,83.4391367 41.7045831,85.5573371 40.6043554,86.5753098 C39.5041276,87.5927585 37.8810296,89.353123 37.2486606,89.5181572 C36.6157677,89.6831913 37.4136948,89.0508223 38.0460638,88.1978838 C38.6789567,87.3449453 39.5318952,85.8874055 40.6043554,85.3372916 C41.6768155,84.7871777 43.0798679,83.4391367 43.5749704,83.3568815 C44.0700729,83.2741025 45.0602779,83.3568815 45.0602779,83.3568815" id="Fill-110" fill="#FFD6CB"></path>
                <path d="M43.2815763,84.3560979 C43.2815763,84.3560979 40.6593667,85.5296743 39.3024191,86.5198793 C37.9454715,87.5106082 37.5420547,88.041861 36.5518497,88.4819522 C35.5616446,88.9220433 34.9931936,88.8120205 35.1032164,88.6286492 C35.2132392,88.4452779 36.7902323,87.6017699 37.5970661,86.6849134 C38.4038998,85.7680569 39.8708702,85.2179431 40.8610752,84.5944806 C41.8512802,83.9710182 42.5480911,83.4575786 42.5480911,83.4575786 L43.2815763,84.3560979 Z" id="Fill-112" fill="#FFD6CB"></path>
                <path d="M145.051861,126.548891 C145.051861,126.548891 143.311929,128.402513 142.559583,128.604221 C141.808285,128.805929 141.404344,129.539415 139.919036,129.238686 C139.32177,129.118185 139.912226,128.631465 139.048285,128.438663 C138.657966,128.351692 138.44054,127.962421 138.958171,127.721419 C140.008103,127.233651 140.157943,127.890121 140.68972,127.082763 C141.220973,126.275405 141.092613,125.945337 141.844959,126.165383 C142.596257,126.385428 145.051861,126.548891 145.051861,126.548891" id="Fill-114" fill="#FFD6CB"></path>
                <path d="M122.205631,86.116672 C111.239503,84.7199066 101.942055,84.9567175 99.6876355,86.6484487 C93.6238087,91.195533 105.757749,108.666103 111.820528,119.527446 C116.488114,127.889702 120.493467,134.392048 115.805449,137.901251 C110.065403,142.197902 106.24185,141.747856 107.864948,142.693005 C108.819002,143.248358 109.992579,142.683574 111.468456,142.848608 C112.800255,142.997401 116.096223,142.463005 117.18964,142.0051 C122.442966,139.804645 125.496884,140.159337 125.653011,139.166513 C125.873057,137.763984 124.532351,137.336467 123.837112,135.948084 C122.679253,133.634462 121.965677,130.860317 121.741964,129.777902 C121.358456,127.922185 118.27415,112.42469 117.010984,107.372549 C115.747818,102.319884 113.222009,99.7935513 113.222009,99.7935513 C113.222009,99.7935513 116.679344,102.573984 122.035358,105.366467 C125.373763,99.6122756 124.216428,92.2905216 122.205631,86.116672" id="Fill-116" fill="#FFD6CB"></path>
                <path d="M43.7655718,82.7820387 C43.7655718,82.7820387 40.8017677,84.1326993 39.662246,84.4077563 C38.5227244,84.6828132 38.0910159,86.3169134 37.3585786,86.9314692 C36.6266651,87.5460251 38.2026105,86.1953645 38.9078041,85.8380524 C41.3000137,84.6257062 43.6817449,84.2091913 43.7655718,83.7696241 C43.8493986,83.3300569 43.7655718,82.7820387 43.7655718,82.7820387" id="Fill-118" fill="#FFD6CB"></path>
                <path d="M45.5089613,82.3169567 C45.5089613,82.3169567 42.016,83.1698952 41.3280957,83.1698952 C40.6407153,83.1698952 40.0078223,83.8572756 39.045385,84.4073895 C38.0824237,84.9580273 37.8901458,85.0130387 37.5050661,85.177549 C37.1194624,85.3425831 35.2768428,86.0137221 35.6069112,86.1237449 C35.9369795,86.2337677 36.8459772,86.1839954 37.5600774,85.9204647 C38.8253394,85.4526059 40.6952027,84.2151116 41.5208975,84.1601002 C42.3455444,84.1050888 45.5089613,83.1421276 45.5089613,83.1421276 L45.5089613,82.3169567 Z" id="Fill-120" fill="#FFD6CB"></path>
                <g transform="translate(118.189066, 105.079727)">
                    <mask id="mask-68" fill="white">
                        <use xlink:href="#path-67"></use>
                    </mask>
                    <g id="Clip-125"></g>
                    <path d="M3.2461959,0.593599089 L0.128883827,3.10578588 C0.128883827,3.10578588 8.343918,8.48799544 11.7184738,9.36817768 C15.0919818,10.2483599 15.352369,10.3285194 16.5751936,9.68881549 C23.0665376,6.29173121 25.0333257,5.97580866 25.0333257,5.97580866 C25.0333257,5.97580866 16.0455125,4.5271754 11.0578132,2.84015945 C6.0701139,1.15314351 3.71353075,0.217949886 3.71353075,0.217949886 L3.2461959,0.593599089 Z" id="Fill-124" mask="url(#mask-68)"></path>
                </g>
            </g>
            <g transform="translate(320.113895, 112.998588)">
                <mask id="mask-70" fill="white">
                    <use xlink:href="#path-69"></use>
                </mask>
                <g id="Clip-127"></g>
                <path d="M0.346833713,1.43291572 C0.236810934,2.25808656 0.181275626,2.97323462 0.181275626,2.97323462 L0.181275626,2.97323462 C0.181275626,2.97323462 0.456332574,2.56981777 2.60177677,2.12972665 L2.60177677,2.12972665 C4.74722096,1.68963554 4.43548975,1.34123007 4.43548975,1.34123007 L4.43548975,1.34123007 L4.03259681,0.479384966 C4.03259681,0.479384966 0.456332574,0.607744875 0.346833713,1.43291572" id="Fill-126" mask="url(#mask-70)"></path>
            </g>
            <g transform="translate(302.300683, 115.618178)">
                <mask id="mask-72" fill="white">
                    <use xlink:href="#path-71"></use>
                </mask>
                <g id="Clip-129"></g>
                <path d="M0.170797267,0.133599089 L2.38487472,4.42448747 L5.27323462,2.87002278 C5.27323462,2.87002278 5.65779043,1.60528474 3.58150342,0.518678815 L3.58150342,0.518678815 C2.82444191,0.122596811 1.99560364,0.0209567198 1.34437358,0.0209567198 L1.34437358,0.0209567198 C0.659088838,0.0209567198 0.170797267,0.133599089 0.170797267,0.133599089" id="Fill-128" mask="url(#mask-72)"></path>
            </g>
            <g transform="translate(67.585421, 0.356219)">
                <g transform="translate(258.291572, 135.170843)">
                    <mask id="mask-74" fill="white">
                        <use xlink:href="#path-73"></use>
                    </mask>
                    <g id="Clip-131"></g>
                    <path d="M0.689476082,1.67915718 C0.689476082,1.67915718 6.21838269,2.25703872 7.2085877,1.70692483 C8.19879271,1.15681093 8.61111617,0.964009112 9.05173121,1.62414579 C9.49182232,2.28428246 9.43628702,2.83439636 10.8671071,2.6143508 C12.2968793,2.39430524 13.1220501,0.138838269 14.0027563,1.67915718 C14.8829385,3.21947608 14.1672665,3.35726651 15.8181321,2.91665148 C17.4679499,2.47708428 16.4227335,1.73416856 18.4031435,2.72437358 C20.3840774,3.71457859 19.338861,2.97218679 22.1444419,3.68733485 C23.5092483,4.0352164 21.6493394,2.39430524 19.6684055,1.40410023 C17.6879954,0.413895216 17.4679499,0.193849658 13.1775854,0.193849658 C8.88617312,0.193849658 8.28104784,-0.136218679 5.64050114,0.633940774 C4.46692483,0.976583144 0.176036446,0.285535308 0.176036446,0.285535308 L0.689476082,1.67915718 Z" id="Fill-130" mask="url(#mask-74)"></path>
                </g>
                <g transform="translate(20.956720, 0.000000)">
                    <mask id="mask-76" fill="white">
                        <use xlink:href="#path-75"></use>
                    </mask>
                    <g id="Clip-133"></g>
                </g>
                <path d="M139.288472,157.765383 L0.569656036,164.794267 C0.129041002,164.816271 -0.0197517084,164.312786 0.378425968,164.146704 L37.0228223,148.881829 C37.0720706,148.861396 37.1249863,148.849346 37.1794738,148.846727 L166.328403,142.302991 C166.743346,142.282034 166.913096,142.738367 166.561547,142.930121 L139.487036,157.710371 C139.42731,157.742854 139.358677,157.761715 139.288472,157.765383" id="Fill-137" fill="#FFFFFF"></path>
            </g>
            <g transform="translate(79.635535, 143.909749)">
                <mask id="mask-78" fill="white">
                    <use xlink:href="#path-77"></use>
                </mask>
                <g id="Clip-140"></g>
                <path d="M140.235558,0.0361503417 L31.7059453,5.53571754 C31.6362642,5.53886105 31.5681549,5.55457859 31.5052847,5.58077449 L31.5052847,5.58077449 L0.549589977,18.6698178 C0.0497722096,18.8814806 0.238906606,19.5138497 0.793735763,19.4855581 L0.793735763,19.4855581 L116.246925,13.6360137 C116.332847,13.6318223 116.417722,13.6087699 116.491595,13.5694761 L116.491595,13.5694761 L140.524237,0.831457859 C140.964328,0.597790433 140.77205,0.0356264237 140.270137,0.0356264237 L140.270137,0.0356264237 C140.25861,0.0356264237 140.247084,0.0356264237 140.235558,0.0361503417" id="Fill-139" fill="#4C7EEB" mask="url(#mask-78)"></path>
            </g>
            <g transform="translate(68.633257, 142.861913)">
                <mask id="mask-80" fill="white">
                    <use xlink:href="#path-79"></use>
                </mask>
                <g id="Clip-142"></g>
                <path d="M138.632893,15.0154897 L0.177084282,22.0307517 L0.354168565,25.5315718 L138.511344,18.5315034 C138.707289,18.521549 138.897472,18.4691572 139.064077,18.3790433 L139.064077,18.3790433 L165.886059,3.71981777 L165.708451,0.218997722 L138.632893,15.0154897 Z" id="Fill-141" fill="#D8D8D8" mask="url(#mask-80)"></path>
            </g>
            <g transform="translate(207.471526, 142.861913)">
                <mask id="mask-82" fill="white">
                    <use xlink:href="#path-81"></use>
                </mask>
                <g id="Clip-144"></g>
                <polygon id="Fill-143" fill="#C0BBC2" mask="url(#mask-82)" points="0.0911617312 14.8457403 0.268769932 18.3465604 27.0477904 3.71981777 26.8701822 0.218997722"></polygon>
            </g>
            <path d="M220.18623,149.460556 C220.21033,149.932606 218.587756,150.398369 216.562289,150.501057 C214.536822,150.603745 212.875478,150.304064 212.851378,149.832014 C212.827802,149.360487 214.450376,148.8942 216.475843,148.792036 C218.50131,148.689349 220.162654,148.988506 220.18623,149.460556" id="Fill-145" fill="#7196A7"></path>
            <g transform="translate(166.605923, 158.055535)">
                <mask id="mask-84" fill="white">
                    <use xlink:href="#path-83"></use>
                </mask>
                <g id="Clip-148"></g>
                <path d="M0.0220045558,1.02373576 C0.0220045558,1.02373576 5.99047836,1.40829157 7.03621868,1.38104784 L7.03621868,1.38104784 C8.08143508,1.3538041 10.254123,0.473621868 10.254123,0.473621868 L10.254123,0.473621868 L0.0220045558,1.02373576 Z" id="Fill-147" mask="url(#mask-84)"></path>
            </g>
            <g transform="translate(110.398633, 21.312938)">
                <path d="M52.199369,14.5533941 C52.199369,14.5533941 70.868139,16.9010706 76.3409863,15.6300456 C82.642672,14.1656948 86.194836,15.7924601 96.2928314,17.3511162 C106.390303,18.9092483 108.074699,21.0735535 117.401487,20.7282916 C126.297091,20.3987472 127.746772,22.9701367 129.00208,24.526697 C130.4088,26.2702961 114.096089,23.153508 106.974995,23.9477677 C100.49151,24.6712984 80.3929681,25.4896583 71.1625809,25.9486105 C63.9016014,26.30959 51.9106902,24.9961276 51.9106902,24.9961276 L52.199369,14.5533941 Z" id="Fill-151" fill="#FFD6CB"></path>
                <path d="M23.1510501,66.8169909 L19.5574966,69.5266948 C19.5574966,69.5266948 18.6437836,67.3613417 18.5091367,66.9794055 C18.1790683,66.0442118 18.526426,65.5056241 18.526426,65.5056241 C18.526426,65.5056241 19.7702073,65.6271731 20.6540569,65.8838929 C21.5379066,66.1406128 23.1510501,66.8169909 23.1510501,66.8169909" id="Fill-153" fill="#008E75"></path>
                <path d="M25.8377016,64.8482118 C25.8377016,64.8482118 1.16483144,82.5356834 0.269455581,88.1615148 C-0.625920273,93.7873462 26.3914829,115.595957 27.445082,119.068485 C27.7845809,120.186526 26.2620752,123.373519 25.5746948,124.826868 C24.1276333,127.888121 21.9303212,129.323132 22.7350592,129.482403 C23.7519841,129.683588 26.1614829,128.574453 28.8355604,126.037118 C29.2803667,125.614841 29.7330319,125.152745 30.1872688,124.650831 C31.8302756,122.835456 37.5991367,121.216025 36.2668132,118.051036 C35.8157198,116.9791 31.2764943,114.403519 30.4984761,112.807141 C25.5631686,102.68295 22.2939203,96.5651595 19.771779,93.5363895 C16.8116424,89.9826538 15.1277699,90.3996925 16.6628497,89.3717654 C19.5056287,87.4678474 42.0382938,77.5558428 42.0382938,77.5558428 L25.8377016,64.8482118 Z" id="Fill-155" fill="#FFD6CB"></path>
                <path d="M67.9171708,59.2340114 C67.960656,60.1131458 66.5214533,71.6204806 64.7495626,75.2910501 C62.3526378,80.2572688 59.9593804,86.951369 59.9593804,86.951369 L46.5868975,88.8626219 C46.5868975,88.8626219 39.1865558,86.1749226 38.5924328,83.8990228 C38.1350524,82.1459932 41.0522278,78.2239431 41.0522278,78.2239431 L35.4410661,81.8154009 C35.4410661,81.8154009 34.4786287,75.0453326 27.4607472,69.5038519 C22.3866014,65.4969271 18.4435945,65.5880888 18.5834806,65.5053098 C21.2423645,63.9267449 29.7790843,60.2488405 29.7790843,60.2488405 C29.7790843,60.2488405 31.774164,50.8958565 43.9049613,52.643123 C56.0362825,54.3898656 60.2836856,59.3199339 62.9357585,59.4818246 C65.5873075,59.6437153 67.9171708,59.2340114 67.9171708,59.2340114" id="Fill-157" fill="#008E75"></path>
                <path d="M24.6714077,19.2264282 C22.0617722,21.0438998 19.4867153,21.2115535 16.1121595,24.243467 C12.7376036,27.2753804 7.97099772,32.2693667 7.97099772,32.2693667 L20.8069886,43.5650387 C20.8069886,43.5650387 21.9459863,42.3291162 22.3467836,41.7281822 C23.0870797,40.618 24.5844374,39.4208474 24.5844374,39.4208474 C24.5844374,39.4208474 27.7588565,42.7037175 31.1491298,49.9835581 C33.6435034,55.338 27.2097904,56.9951526 29.6601549,57.5342642 C32.1105194,58.0733759 27.5608155,59.6215535 30.6702688,60.1281822 C33.7797221,60.634287 45.1005421,53.4623736 49.5056446,57.8695718 C53.9107472,62.2772938 50.844779,62.6503235 58.2189248,60.3005513 C65.5930706,57.951303 69.008492,64.6113485 68.7245285,58.8974989 C68.4405649,53.1831253 64.1098588,59.4339909 61.9560319,46.0955626 C60.0489704,34.286451 59.253139,32.1703462 59.253139,32.1703462 L60.4235718,32.3023736 C60.4235718,32.3023736 60.9207699,26.0169294 60.7022961,21.6212574 C60.4838223,17.2261093 60.8846196,13.4607107 60.8846196,13.4607107 C60.8846196,13.4607107 47.727467,13.2333303 38.936123,13.6702779 C30.145303,14.1072255 27.8117722,17.0390706 24.6714077,19.2264282" id="Fill-159" fill="#FFFFFF"></path>
                <path d="M12.5985034,36.3417813 C12.5985034,36.3417813 6.91242141,47.709754 5.35952847,51.766451 C4.28340091,54.5772711 5.23535991,55.3374761 8.27775171,57.3849476 C12.0117153,59.8976583 17.1618292,60.8658588 22.7714191,61.7297995 C24.9718747,62.0687745 26.5027631,62.212328 27.7963166,62.7252437 C28.3715786,62.9526241 28.8897335,62.4826697 29.2454738,62.8787517 C30.0769317,63.8039909 31.1242437,65.9656765 31.5884351,66.5844237 C32.3984123,67.6647426 33.0161116,68.8660866 34.0414191,68.7262005 C34.9032642,68.6083189 35.6666128,68.7015763 36.2507813,68.2483872 C37.0712369,67.6123508 37.7837654,67.5908702 38.2998246,67.3404374 C38.8504624,67.0737631 39.1386173,66.460779 39.7573645,66.1715763 C40.47618,65.8362688 40.6202574,65.6356082 40.610303,64.7140364 C40.5987768,63.6871572 39.9045854,62.6414169 38.6094601,61.7172255 C37.4835604,60.9135353 35.9720569,59.3983645 34.3704396,58.9383645 C28.988754,57.3928064 22.8557699,55.3600046 19.0212141,52.6843554 C16.6478656,51.0282506 13.8129453,50.808205 14.8466355,49.5916674 C16.2926492,47.8899818 19.3601891,42.291918 19.3601891,42.291918 L12.5985034,36.3417813 Z" id="Fill-161" fill="#FFD6CB"></path>
                <path d="M49.0663394,76.7867836 C49.0663394,76.7867836 44.5816014,81.122205 45.1369544,86.3823417 C45.6923075,91.6424784 49.3110091,95.599631 55.8123075,106.120952 C62.6803485,117.236396 63.8811686,120.70159 64.1143121,125.390656 C64.3474556,130.078674 63.8193462,131.280018 66.3545854,129.0979 C68.8898246,126.915257 68.9720797,122.651613 67.0859749,108.351271 C65.1998702,94.0509294 59.0108269,89.217262 59.2439704,82.0825467 C59.4771139,74.9473075 52.3188223,77.212205 49.0663394,76.7867836" id="Fill-163" fill="#FFD6CB"></path>
                <path d="M28.4831207,1.51962415 C27.8628018,1.80411162 24.5175854,2.45167426 23.5210934,5.51030752 C23.1386333,6.68231207 23.6253531,8.91682232 23.9695672,10.5760706 C25.2123007,16.5628815 27.1198861,19.6000342 31.5883827,22.0247267 C36.0568793,24.4488952 37.8712073,21.9911959 40.1659681,17.9538838 C42.2605923,14.2681207 41.3945558,2.28192483 38.3207289,1.30062642 C35.2479499,0.3188041 32.1793622,-0.176298405 28.4831207,1.51962415" id="Fill-165" fill="#FFD6CB"></path>
            </g>
            <g transform="translate(133.599089, 26.552118)">
                <mask id="mask-86" fill="white">
                    <use xlink:href="#path-85"></use>
                </mask>
                <g id="Clip-168"></g>
                <path d="M0.270865604,2.66831435 C0.357835991,4.41820046 0.827790433,7.09332574 0.827790433,7.09332574 L0.827790433,7.09332574 C0.827790433,7.09332574 1.34332574,6.59507973 0.910045558,4.66025057 L0.910045558,4.66025057 C0.476241458,2.72594533 1.84628702,0.43118451 1.84628702,0.43118451 L1.84628702,0.43118451 L0.0728246014,0.0476765376 C0.0728246014,0.0476765376 0.183895216,0.918952164 0.270865604,2.66831435" id="Fill-167" fill="#313131" mask="url(#mask-86)"></path>
            </g>
            <g transform="translate(125.788155, 15.073759)" fill="#313131">
                <path d="M15.0492618,0.525472004 C6.33021851,2.22349023 7.77441723,1.72424667 3.2961754,1.90297267 C-2.46681181,2.13297267 3.77817995,10.9185535 5.1974738,12.3320843 C6.61676765,13.745615 10.9814059,14.8288155 17.4229777,11.4783599 C19.1943444,10.5567882 21.4774331,9.36323099 22.966408,7.86168202 C23.7994376,5.77229705 20.3277016,5.13187927 22.1483166,3.39299544 C20.6991595,2.16493166 18.5385556,-0.154573554 15.0492618,0.525472004 Z" id="Fill-169"></path>
                <path d="M22.1577995,3.39299544 C20.3371845,5.13187927 19.6780957,7.33233485 18.84559,9.42171982 C20.2863645,7.96889522 21.6799863,6.82308656 23.3926743,8.03805239 C24.4625148,8.79720957 24.7747699,9.98912301 24.7747699,9.98912301 C24.7747699,9.98912301 23.8275262,5.80039863 22.1577995,3.39299544" id="Fill-171"></path>
            </g>
            <g transform="translate(147.220957, 22.360774)">
                <mask id="mask-88" fill="white">
                    <use xlink:href="#path-87"></use>
                </mask>
                <g id="Clip-174"></g>
                <path d="M0.382984055,0.233143508 C0.382984055,0.233143508 1.28412301,0.609316629 2.3932574,2.57767654 L2.3932574,2.57767654 C3.50343964,4.54603645 3.97339408,6.54635535 3.97339408,6.54635535 L3.97339408,6.54635535 C3.97339408,6.54635535 3.9304328,4.26993166 3.45471526,2.89569476 L3.45471526,2.89569476 C2.59287016,0.405512528 0.94881549,0.228428246 0.49929385,0.228428246 L0.49929385,0.228428246 C0.424373576,0.228428246 0.382984055,0.233143508 0.382984055,0.233143508" id="Fill-173" fill="#313131" mask="url(#mask-88)"></path>
            </g>
            <g transform="translate(128.116173, 43.212711)" fill="#FFD6CB">
                <path d="M11.1370387,104.122257 C11.1370387,104.122257 7.96628702,108.656244 4.29886105,108.802941 C2.52592255,108.87367 1.10820046,109.059661 0.668109339,108.802941 C0.228018223,108.546221 1.40107062,107.252667 2.31845103,107.252667 C3.23530752,107.252667 2.90523918,107.940048 4.04214123,107.252667 C5.17904328,106.565811 8.58974943,101.147975 8.58974943,101.147975 L11.1370387,104.122257 Z" id="Fill-175"></path>
                <path d="M93.198,1.46885649 C94.6796401,2.12846925 97.2688428,3.47598633 99.414287,4.28753531 C101.559731,5.0996082 104.310301,4.32944875 105.521075,4.82455125 C106.731326,5.31965376 107.46062,5.11899317 106.657453,4.28753531 C105.759458,3.35758087 102.660483,2.67910706 103.265084,1.90894761 C103.870733,1.13878815 93.198,1.46885649 93.198,1.46885649" id="Fill-177"></path>
                <path d="M103.356822,0.870489749 C103.356822,0.870489749 104.873565,2.70682232 106.479374,3.07094533 C108.085182,3.43506834 109.298052,3.59276765 110.508303,4.51486333 C111.718554,5.43643508 111.974226,6.11490888 112.764294,6.11490888 C113.553314,6.11490888 113.093838,5.76650342 112.983815,5.10636674 C112.874317,4.44623007 113.575319,4.88632118 112.488713,3.48746014 C111.402631,2.08859909 104.732107,0.375387244 104.732107,0.375387244 L103.356822,0.870489749 Z" id="Fill-179"></path>
                <path d="M45.1617403,112.382401 C44.9689385,112.987526 43.9514897,114.170533 43.9237221,114.885157 C43.8964784,115.600829 44.6116264,116.178187 45.3540182,115.930374 C46.0969339,115.683084 46.2619681,115.490806 47.0598952,115.463039 C47.8572984,115.435795 48.0087107,115.262902 49.0303508,114.833289 C50.0519909,114.403153 50.8111481,114.460784 50.8332193,113.957822 C50.8556811,113.454861 45.1617403,112.382401 45.1617403,112.382401" id="Fill-181"></path>
                <path d="M46.2111481,101.402128 C46.2111481,101.732196 46.0723098,107.222333 45.7710569,109.763859 C45.3859772,113.009531 43.4474806,114.771991 45.6060228,115.264998 C47.5314214,115.705089 47.4559772,115.757481 49.5118314,114.934929 C51.4372301,114.16477 52.9225376,113.174565 52.3724237,109.213745 C51.8223098,105.252925 49.9272984,98.1192574 49.9272984,98.1192574 L46.2111481,101.402128 Z" id="Fill-183"></path>
            </g>
        </g>
        <path d="M157.160613,115.198494 L147.113936,121.002195 C147.906204,124.00668 150.839687,124.972191 155.914383,123.898731 C160.989078,122.82527 164.448975,121.629103 166.294074,120.31023 C163.795524,119.744052 161.944286,119.125874 160.74036,118.455695 C159.536433,117.785516 158.343185,116.699782 157.160613,115.198494 Z" id="路径-6" fill="#F2F2F2" opacity="0.699999988"></path>
        <path d="M166.294074,147.922806 C163.389857,148.883434 162.958578,149.363748 165.000237,149.363748 C168.062725,149.363748 173.737311,147.679599 176.12726,147.28905 C178.517209,146.898501 180.930162,147.8397 181.619743,148.896212 C182.079463,149.600554 182.444383,149.600554 182.714501,148.896212 C182.038561,146.298737 180.665152,145 178.594276,145 C176.523399,145 172.423332,145.974269 166.294074,147.922806 Z" id="路径-7" fill="#F2F2F2"></path>
    </g>
</svg>