<?xml version="1.0"?>
<svg width="188.10000610351562" height="99.73999786376953" xmlns="http://www.w3.org/2000/svg" xmlns:svg="http://www.w3.org/2000/svg" class="h-28" version="1.0">
 <g class="layer">
  <title>Layer 1</title>
  <g class="icon-text-wrapper icon-svg-group iconsvg" fill="#0bbf64" id="svg_9" xmlns="http://www.w3.org/2000/svg">
   <g class="iconsvg-imagesvg icon_container" fill="#0bbf64" id="svg_10" transform="matrix(1 0 0 1 64.05 0)">
    <rect class="image-rect" fill="#0bbf64" fill-opacity="0" height="60" id="svg_11" stroke-width="2" width="60" x="0" y="0"/>
    <g id="svg_3">
     <svg class="image-svg-svg bn" height="60" id="svg_12" viewBox="0 0 60 58.822376031842516" width="60" x="0" y="0">
      <g id="svg_13" mask="url(#svg_1)">
       <g id="svg_5">
        <svg enable-background="new 0 0 64 64" filter="url(#svg_4)" height="58.82" id="svg_14" version="1.1" viewBox="0 0.628 64 62.744" width="60" x="0" xml:space="preserve" xmlns="http://www.w3.org/2000/svg" xmlns:xlink="http://www.w3.org/1999/xlink" y="0">
         <g id="svg_15" transform="scale(1, 1) skewX(0)">
          <path d="m51.2,9.21c-2.76,-1.42 -9.84,-4.51 -19.2,-4.51c-9.87,0 -16.61,3.03 -19.18,4.43c-0.96,4.25 -4.28,7.68 -8.75,9.03l0,27.68c4.48,1.36 7.8,4.79 8.75,9.05c2.53,1.39 9.19,4.41 19.18,4.41c9.36,0 16.44,-3.09 19.2,-4.51c0.98,-4.21 4.29,-7.61 8.73,-8.95l0,-27.68c-4.44,-1.34 -7.75,-4.74 -8.73,-8.95z" id="svg_16"/>
          <path d="m54.98,6.67c0,0 -9.1,-6.04 -22.98,-6.04c-14.71,0 -22.99,6.04 -22.99,6.04c0,4.43 -4.03,8.01 -9.01,8.01l0,2.37l0,1.32l0,30.95c4.98,0 9.01,3.58 9.01,8.01c0,0 8.28,6.04 22.99,6.04c13.88,0 22.98,-6.04 22.98,-6.04c0,-4.43 4.04,-8.01 9.02,-8.01l0,-31.34l0,-3.3c-4.98,0 -9.02,-3.58 -9.02,-8.01zm5.69,39.73l-0.27,0.08c-4.37,1.22 -7.63,4.53 -8.51,8.64l-0.04,0.17l-0.15,0.08c-2.69,1.4 -10,4.67 -19.7,4.67c-10.36,0 -17.22,-3.21 -19.69,-4.59l-0.14,-0.08l-0.04,-0.16c-0.86,-4.15 -4.12,-7.5 -8.53,-8.73l-0.27,-0.08l0,-28.8l0.27,-0.08c4.4,-1.23 7.67,-4.57 8.53,-8.71l0.03,-0.17l0.15,-0.08c2.51,-1.38 9.45,-4.6 19.69,-4.6c9.7,0 17,3.27 19.7,4.67l0.15,0.08l0.03,0.17c0.89,4.11 4.15,7.42 8.52,8.64l0.27,0.08l0,28.8z" id="svg_17"/>
         </g>
         <defs>
          <filter id="svg_4">
           <feColorMatrix type="matrix" values="0 0 0 0 0.04296875  0 0 0 0 0.74609375  0 0 0 0 0.390625  0 0 0 1 0"/>
          </filter>
         </defs>
        </svg>
       </g>
       <g filter="url(#colors5018610279)" id="svg_6">
        <svg class="image-svg-letter" height="39.21" id="svg_18" viewBox="0 0 34.875 50.765625" width="40" x="10" xmlns="http://www.w3.org/2000/svg" xmlns:xlink="http://www.w3.org/1999/xlink" y="9.8">
         <path d="m35.51,-51.47l0,12.8q-3.55,9.95 -6.44,18.03l0,0q-1.23,3.45 -2.42,6.81q-1.2,3.35 -2.2,6.11q-1,2.76 -1.67,4.66q-0.67,1.9 -0.84,2.36l0,0l-18.42,-1.06l16.24,-34.94l-19.13,1.05l0,-15.19l34.88,-0.63z" id="svg_19" transform="translate(-0.6328125 51.46875)"/>
        </svg>
       </g>
      </g>
      <mask id="svg_1">
       <g fill="white" id="svg_7">
        <svg enable-background="new 0 0 64 64" height="58.82" id="svg_20" version="1.1" viewBox="0 0.628 64 62.744" width="60" x="0" xml:space="preserve" xmlns="http://www.w3.org/2000/svg" xmlns:xlink="http://www.w3.org/1999/xlink" y="0">
         <g id="svg_21" transform="scale(1, 1) skewX(0)">
          <path d="m51.2,9.21c-2.76,-1.42 -9.84,-4.51 -19.2,-4.51c-9.87,0 -16.61,3.03 -19.18,4.43c-0.96,4.25 -4.28,7.68 -8.75,9.03l0,27.68c4.48,1.36 7.8,4.79 8.75,9.05c2.53,1.39 9.19,4.41 19.18,4.41c9.36,0 16.44,-3.09 19.2,-4.51c0.98,-4.21 4.29,-7.61 8.73,-8.95l0,-27.68c-4.44,-1.34 -7.75,-4.74 -8.73,-8.95z" id="svg_22"/>
          <path d="m54.98,6.67c0,0 -9.1,-6.04 -22.98,-6.04c-14.71,0 -22.99,6.04 -22.99,6.04c0,4.43 -4.03,8.01 -9.01,8.01l0,2.37l0,1.32l0,30.95c4.98,0 9.01,3.58 9.01,8.01c0,0 8.28,6.04 22.99,6.04c13.88,0 22.98,-6.04 22.98,-6.04c0,-4.43 4.04,-8.01 9.02,-8.01l0,-31.34l0,-3.3c-4.98,0 -9.02,-3.58 -9.02,-8.01zm5.69,39.73l-0.27,0.08c-4.37,1.22 -7.63,4.53 -8.51,8.64l-0.04,0.17l-0.15,0.08c-2.69,1.4 -10,4.67 -19.7,4.67c-10.36,0 -17.22,-3.21 -19.69,-4.59l-0.14,-0.08l-0.04,-0.16c-0.86,-4.15 -4.12,-7.5 -8.53,-8.73l-0.27,-0.08l0,-28.8l0.27,-0.08c4.4,-1.23 7.67,-4.57 8.53,-8.71l0.03,-0.17l0.15,-0.08c2.51,-1.38 9.45,-4.6 19.69,-4.6c9.7,0 17,3.27 19.7,4.67l0.15,0.08l0.03,0.17c0.89,4.11 4.15,7.42 8.52,8.64l0.27,0.08l0,28.8z" id="svg_23"/>
         </g>

        </svg>
       </g>
       <g fill="black" id="svg_8">
        <svg class="image-svg-letter" height="39.21" id="svg_24" viewBox="0 0 34.875 50.765625" width="40" x="10" xmlns="http://www.w3.org/2000/svg" xmlns:xlink="http://www.w3.org/1999/xlink" y="9.8">
         <path d="m35.51,-51.47l0,12.8q-3.55,9.95 -6.44,18.03l0,0q-1.23,3.45 -2.42,6.81q-1.2,3.35 -2.2,6.11q-1,2.76 -1.67,4.66q-0.67,1.9 -0.84,2.36l0,0l-18.42,-1.06l16.24,-34.94l-19.13,1.05l0,-15.19l34.88,-0.63z" id="svg_25" transform="translate(-0.6328125 51.46875)"/>
        </svg>
       </g>
      </mask>
     </svg>
    </g>
    <defs transform="translate(0 -1) translate(0 -1) translate(-1 0) translate(-1 0) translate(-1 0) translate(-1 0) translate(1 0) translate(0 -1) translate(0 -1) translate(0 1) translate(0 1) translate(0 1) translate(0 1) translate(0 1) translate(0 1) translate(3 -2)">
     <filter id="colors5018610279">
      <feColorMatrix class="icon-fecolormatrix" type="matrix" values="0 0 0 0 0.04296875  0 0 0 0 0.74609375  0 0 0 0 0.390625  0 0 0 1 0"/>
     </filter>
    </defs>
   </g>
   <g id="svg_26" transform="translate(0 67)">
    <g class="tp-name iconsvg-namesvg" data-gra="path-name" id="svg_27">
     <g id="svg_28" transform="translate(3 -2) scale(1 1)">
      <g id="svg_29">
       <path d="m19.19,-30.17l0,8q-2.22,6.22 -4.02,11.27l0,0q-0.77,2.16 -1.51,4.25q-0.75,2.1 -1.38,3.83q-0.62,1.72 -1.04,2.91q-0.42,1.18 -0.53,1.47l0,0l-11.51,-0.66l10.15,-21.84l-11.95,0.66l0,-9.49l21.79,-0.4zm30.52,0.71l10.86,0.96l-5.14,29.58l-12.49,0.26l-2.68,-14.9l-2.68,13.76l-12.48,0.44l-5.18,-28.26l10.9,-0.97l2.19,17.36l2.95,-16.04l8.57,0l3.42,16.26l1.76,-18.45zm35.95,13.71l0,0q0,1.91 -0.26,3.82l0,0q-3.76,0.24 -7.47,0.78q-3.72,0.54 -7.43,1.07l0,0q0.57,1.58 1.79,2.52q1.22,0.95 2.91,0.95l0,0q0.88,0 1.92,-0.33q1.05,-0.33 2.08,-0.83q1.03,-0.49 1.98,-1.06q0.94,-0.57 1.62,-1.04l0,0l-1.05,9.98q-0.86,0.66 -1.86,1.12q-1,0.46 -2.07,0.75q-1.08,0.28 -2.18,0.42q-1.1,0.13 -2.15,0.13l0,0q-2.18,0 -3.98,-0.6q-1.8,-0.59 -3.26,-1.65q-1.46,-1.07 -2.56,-2.52q-1.1,-1.45 -1.83,-3.16q-0.72,-1.72 -1.1,-3.63q-0.37,-1.91 -0.37,-3.87l0,0q0,-2.04 0.37,-4.08q0.38,-2.05 1.14,-3.94q0.75,-1.89 1.91,-3.5q1.15,-1.62 2.69,-2.83q1.54,-1.2 3.48,-1.89q1.95,-0.68 4.3,-0.68l0,0q1.95,0 3.57,0.54q1.61,0.54 2.88,1.5q1.26,0.95 2.19,2.27q0.94,1.32 1.54,2.89q0.61,1.57 0.9,3.32q0.3,1.74 0.3,3.55zm-8.79,-0.66l0,-0.49q0,-0.61 -0.13,-1.26q-0.13,-0.65 -0.43,-1.18q-0.3,-0.52 -0.78,-0.86q-0.48,-0.34 -1.21,-0.34l0,0q-0.88,0 -1.55,0.47q-0.67,0.47 -1.15,1.18q-0.48,0.72 -0.79,1.55q-0.31,0.84 -0.46,1.54l0,0l6.5,-0.61zm17.75,13.88l0,0q0,0.97 -0.37,1.81q-0.37,0.83 -1,1.46q-0.62,0.62 -1.46,0.99q-0.83,0.36 -1.78,0.36l0,0q-0.97,0 -1.8,-0.36q-0.84,-0.37 -1.46,-0.99q-0.63,-0.63 -0.99,-1.46q-0.36,-0.84 -0.36,-1.81l0,0q0,-0.94 0.36,-1.8q0.36,-0.86 0.99,-1.48q0.62,-0.63 1.46,-1q0.83,-0.37 1.8,-0.37l0,0q0.95,0 1.78,0.37q0.84,0.37 1.46,1q0.63,0.62 1,1.48q0.37,0.86 0.37,1.8zm22.44,-25.48l0,0l-0.79,9.27q-0.64,-0.18 -1.25,-0.24q-0.62,-0.07 -1.26,-0.07l0,0q-1.56,0 -2.97,0.4q-1.42,0.39 -2.51,1.2q-1.09,0.82 -1.74,2.06q-0.64,1.24 -0.64,2.93l0,0q0,1.23 0.36,2.14q0.36,0.92 1.03,1.52q0.67,0.6 1.63,0.91q0.95,0.31 2.12,0.31l0,0q0.81,0 1.67,-0.16q0.85,-0.17 1.71,-0.46q0.86,-0.28 1.65,-0.65q0.79,-0.38 1.47,-0.8l0,0l-0.35,10.33q-0.86,0.44 -1.85,0.78q-0.98,0.34 -2.03,0.59q-1.04,0.26 -2.09,0.39q-1.04,0.13 -1.98,0.13l0,0q-3.12,0 -5.68,-1.16q-2.56,-1.17 -4.4,-3.18q-1.83,-2.01 -2.84,-4.67q-1.01,-2.66 -1.01,-5.67l0,0q0,-3.6 1.02,-6.72q1.02,-3.12 3.01,-5.42q1.99,-2.29 4.92,-3.6q2.93,-1.31 6.73,-1.31l0,0q1.52,0 3.08,0.24q1.56,0.25 2.99,0.91zm28.89,13.18l0,0q0,2 -0.46,3.86q-0.46,1.85 -1.33,3.48q-0.87,1.62 -2.11,2.98q-1.24,1.35 -2.79,2.31q-1.55,0.97 -3.37,1.51q-1.82,0.54 -3.87,0.54l0,0q-1.98,0 -3.77,-0.51q-1.79,-0.5 -3.35,-1.42q-1.56,-0.91 -2.82,-2.19q-1.26,-1.29 -2.15,-2.86q-0.89,-1.57 -1.39,-3.37q-0.49,-1.8 -0.49,-3.76l0,0q0,-1.91 0.46,-3.75q0.46,-1.83 1.33,-3.46q0.87,-1.62 2.1,-2.99q1.23,-1.36 2.75,-2.35q1.53,-0.98 3.31,-1.53q1.78,-0.55 3.76,-0.55l0,0q3.18,0 5.81,0.99q2.63,0.98 4.48,2.82q1.86,1.83 2.88,4.44q1.02,2.6 1.02,5.81zm-9.75,0.57l0,0q0,-0.94 -0.28,-1.83q-0.27,-0.89 -0.8,-1.59q-0.53,-0.69 -1.31,-1.12q-0.78,-0.43 -1.79,-0.43l0,0q-1.03,0 -1.84,0.38q-0.82,0.37 -1.4,1.02q-0.58,0.65 -0.89,1.52q-0.31,0.86 -0.31,1.83l0,0q0,0.92 0.27,1.85q0.26,0.92 0.79,1.67q0.53,0.74 1.31,1.2q0.78,0.47 1.81,0.47l0,0q1.03,0 1.85,-0.41q0.83,-0.41 1.4,-1.1q0.57,-0.69 0.88,-1.59q0.31,-0.9 0.31,-1.87zm49.3,1.36l0,0q0,3.14 -0.19,6.26q-0.2,3.12 -0.47,6.27l0,0l-11.29,0.52q0.51,-3.82 0.91,-7.65q0.41,-3.84 0.41,-7.68l0,0q0,-0.24 -0.02,-0.85q-0.03,-0.6 -0.08,-1.37q-0.06,-0.77 -0.15,-1.59q-0.1,-0.83 -0.27,-1.52q-0.16,-0.69 -0.4,-1.13q-0.25,-0.44 -0.58,-0.44l0,0q-0.76,0 -1.2,0.58q-0.44,0.58 -0.65,1.4q-0.21,0.81 -0.25,1.65q-0.05,0.85 -0.05,1.38l0,0q0,0.92 0.05,1.84q0.04,0.93 0.04,1.89l0,0q0,3.41 -0.17,6.79q-0.16,3.39 -0.4,6.79l0,0l-10.42,0.4q0.51,-3.83 0.89,-7.64q0.39,-3.81 0.39,-7.66l0,0q0,-0.24 -0.02,-0.87q-0.03,-0.64 -0.08,-1.43q-0.06,-0.79 -0.17,-1.65q-0.11,-0.86 -0.27,-1.57q-0.17,-0.72 -0.41,-1.18q-0.24,-0.46 -0.59,-0.46l0,0q-0.55,0 -0.92,0.43q-0.38,0.43 -0.61,1.11q-0.23,0.68 -0.35,1.5q-0.12,0.83 -0.18,1.62q-0.05,0.79 -0.06,1.46q-0.01,0.67 -0.03,1l0,0l-0.49,16.04l-11.07,0q0.35,-3.71 0.71,-7.45q0.36,-3.73 0.64,-7.46q0.27,-3.72 0.45,-7.46q0.18,-3.73 0.18,-7.47l0,0l10.45,-0.44l-0.04,2.55q0.48,-0.61 1.1,-1.24q0.61,-0.63 1.31,-1.12q0.69,-0.5 1.47,-0.8q0.78,-0.31 1.61,-0.31l0,0q1.08,0 1.94,0.16q0.85,0.17 1.55,0.56q0.69,0.4 1.22,1.09q0.52,0.69 0.92,1.75l0,0q0.7,-0.77 1.42,-1.43q0.71,-0.66 1.5,-1.13q0.79,-0.47 1.72,-0.74q0.92,-0.26 2.04,-0.26l0,0q2.13,0 3.62,0.82q1.5,0.83 2.5,2.19q1,1.36 1.56,3.12q0.56,1.76 0.84,3.65q0.29,1.89 0.37,3.75q0.07,1.87 0.07,3.43z" id="svg_30" transform="translate(-0.4 32.17)"/>
      </g>
      <!---->
      <!---->
      <!---->
      <!---->
      <!---->
      <!---->
      <!---->
     </g>
    </g>
    <!---->
   </g>
  </g>
 </g>
</svg>